<?xml version="1.0" encoding="iso-8859-1"?>
<!-- Generator: Adobe Illustrator 19.0.0, SVG Export Plug-In . SVG Version: 6.00 Build 0)  -->
<svg version="1.1" id="Capa_1" xmlns="http://www.w3.org/2000/svg" xmlns:xlink="http://www.w3.org/1999/xlink" x="0px" y="0px"
	 viewBox="0 0 496 496" style="enable-background:new 0 0 496 496;" xml:space="preserve">
<g>
	<g>
		<g>
			<path d="M472,376V80c0-22.056-17.944-40-40-40H64c-22.056,0-40,17.944-40,40v296H0v40c0,22.056,17.944,40,40,40h416
				c22.056,0,40-17.944,40-40v-40H472z M40,80c0-13.232,10.768-24,24-24h368c13.232,0,24,10.768,24,24v296h-16V88
				c0-8.824-7.176-16-16-16H72c-8.824,0-16,7.176-16,16v288H40V80z M320,392v8c0,4.416-3.592,8-8,8H184c-4.408,0-8-3.584-8-8v-8h112
				v-16H72V88h352v288H304v16H320z M480,416c0,13.232-10.768,24-24,24H40c-13.232,0-24-10.768-24-24v-24h144v8
				c0,13.232,10.768,24,24,24h128c13.232,0,24-10.768,24-24v-8h144V416z"/>
			<rect x="64" y="408" width="16" height="16"/>
			<rect x="96" y="408" width="16" height="16"/>
			<path d="M368,112H128v240h240V112z M144,128h48v48h-48V128z M192,336h-48v-48h48V336z M352,336H208v-64h-64v-80h64v-64h80v64h64
				V336z M352,176h-48v-48h48V176z"/>
			<rect x="160" y="208" width="48" height="16"/>
			<rect x="320" y="144" width="16" height="16"/>
			<rect x="160" y="144" width="16" height="16"/>
			<rect x="160" y="304" width="16" height="16"/>
			<rect x="160" y="240" width="16" height="16"/>
			<rect x="192" y="240" width="16" height="16"/>
			<polygon points="272,176 240,176 240,144 224,144 224,192 272,192 			"/>
			<rect x="224" y="208" width="16" height="48"/>
			<rect x="224" y="272" width="16" height="48"/>
			<rect x="256" y="208" width="32" height="16"/>
			<polygon points="320,256 336,256 336,208 304,208 304,224 320,224 			"/>
			<rect x="256" y="240" width="16" height="48"/>
			<rect x="256" y="304" width="48" height="16"/>
			<rect x="288" y="240" width="16" height="16"/>
			<rect x="288" y="272" width="16" height="16"/>
			<rect x="320" y="272" width="16" height="48"/>
		</g>
	</g>
</g>
<g>
</g>
<g>
</g>
<g>
</g>
<g>
</g>
<g>
</g>
<g>
</g>
<g>
</g>
<g>
</g>
<g>
</g>
<g>
</g>
<g>
</g>
<g>
</g>
<g>
</g>
<g>
</g>
<g>
</g>
</svg>
