<?xml version="1.0" encoding="utf-8"?>
<!-- Generator: Adobe Illustrator 23.0.1, SVG Export Plug-In . SVG Version: 6.00 Build 0)  -->
<svg version="1.1" id="Layer_1" xmlns="http://www.w3.org/2000/svg" xmlns:xlink="http://www.w3.org/1999/xlink" x="0px" y="0px"
	 width="2256.5px" height="304.5px" viewBox="0 0 2256.5 304.5" style="enable-background:new 0 0 2256.5 304.5;"
	 xml:space="preserve">
<style type="text/css">
	.st0{fill:#59B46F;}
	.st1{fill:url(#SVGID_1_);}
	.st2{fill:url(#SVGID_2_);}
	.st3{fill:url(#SVGID_3_);}
	.st4{fill:url(#SVGID_4_);}
	.st5{fill:url(#SVGID_5_);}
	.st6{fill:url(#SVGID_7_);}
	.st7{fill:url(#SVGID_8_);}
	.st8{fill:url(#SVGID_9_);}
	.st9{fill:url(#SVGID_10_);}
	.st10{fill:url(#SVGID_11_);}
	.st11{fill:url(#SVGID_12_);}
	.st12{fill:url(#SVGID_13_);}
	.st13{fill:url(#SVGID_14_);}
	.st14{fill:#7AC78D;}
	.st15{fill:#B4A285;}
	.st16{fill:#CAE692;}
	.st17{fill:#CDBC9D;}
	.st18{fill:url(#SVGID_15_);}
	.st19{fill:url(#SVGID_16_);}
	.st20{fill:url(#SVGID_17_);}
	.st21{fill:#8AC8EF;}
	.st22{fill:#E6F9FC;}
	.st23{fill:#50AEE2;}
	.st24{fill:#FFEADC;}
	.st25{fill:#F78F6A;}
	.st26{fill:#FAAF99;}
	.st27{fill:#FFFFFF;}
	.st28{fill:#919191;}
	.st29{fill:#EEF9FF;}
	.st30{fill:#F5DF7B;}
	.st31{fill:#F9EAA2;}
	.st32{fill:#BBBBBB;}
	.st33{fill:url(#SVGID_18_);}
	.st34{fill:#9B886D;}
	.st35{fill:#5F5F5F;}
	.st36{fill:#ABABAB;}
	.st37{fill:#464646;}
	.st38{fill:#FFEFCC;}
	.st39{fill:#A2DEDC;}
	.st40{fill:#CCCCCC;}
	.st41{fill:#87765C;}
	.st42{fill:#787878;}
	.st43{fill:#EEEEEE;}
	.st44{clip-path:url(#SVGID_20_);fill:#EEEEEE;}
	.st45{clip-path:url(#SVGID_22_);fill:#EEEEEE;}
	.st46{clip-path:url(#SVGID_24_);fill:#EEEEEE;}
	.st47{clip-path:url(#SVGID_26_);fill:#EEEEEE;}
	.st48{clip-path:url(#SVGID_28_);fill:#EEEEEE;}
	.st49{clip-path:url(#SVGID_30_);fill:#EEEEEE;}
	.st50{clip-path:url(#SVGID_32_);fill:#EEEEEE;}
	.st51{clip-path:url(#SVGID_34_);fill:#EEEEEE;}
	.st52{clip-path:url(#SVGID_36_);fill:#EEEEEE;}
	.st53{clip-path:url(#SVGID_38_);fill:#EEEEEE;}
	.st54{clip-path:url(#SVGID_40_);fill:#EEEEEE;}
	.st55{clip-path:url(#SVGID_42_);fill:#EEEEEE;}
	.st56{clip-path:url(#SVGID_44_);fill:#EEEEEE;}
	.st57{clip-path:url(#SVGID_46_);fill:#EEEEEE;}
	.st58{clip-path:url(#SVGID_48_);fill:#EEEEEE;}
	.st59{clip-path:url(#SVGID_50_);fill:#EEEEEE;}
	.st60{fill:#FCF4C9;}
	.st61{fill:#C4EDEB;}
	.st62{fill:none;stroke:#E6F9FC;stroke-width:4.746;stroke-linecap:round;stroke-miterlimit:10;}
	.st63{fill:#F4D3BB;}
	.st64{fill:url(#SVGID_51_);}
	.st65{fill:#2E9ADF;}
	.st66{fill:#F2D454;}
	.st67{fill:none;stroke:#FAAF99;stroke-width:1.2219;stroke-linecap:round;stroke-miterlimit:10;}
	.st68{fill:#ABC3F7;}
	.st69{fill:#429952;}
</style>
<path class="st0" d="M699.4,126.4c1.2-7.4,7.7-12.9,15.5-12.9c2.8,0,5.5,0.7,7.8,2c3.2-7.3,10.5-12.4,19.1-12.4
	c9.1,0,16.7,5.6,19.6,13.6c1.3-0.4,2.6-0.6,4.1-0.6c6.4,0,11.7,4.4,12.9,10.3c0.2,0.8,0.3,1.7,0.3,2.6c0,0.5,0,1.5-0.1,1.7
	c-0.2,0.5-0.7,1.2-1.4,1.2h-16.2h-8.4h-22.1h-7.9h-22c-0.6,0-1.2-0.6-1.4-1.2C699,129.9,699.3,127.3,699.4,126.4z"/>
<linearGradient id="SVGID_1_" gradientUnits="userSpaceOnUse" x1="6240.2065" y1="87.652" x2="6642.0884" y2="87.652" gradientTransform="matrix(-1 0 0 1 6715.4722 0)">
	<stop  offset="0" style="stop-color:#FFFFFF"/>
	<stop  offset="0.7871" style="stop-color:#E6F9FC"/>
</linearGradient>
<path class="st1" d="M74.3,133.3c6.3-37.2,39-65.5,78.6-65.5c14.3,0,27.7,3.6,39.3,10.1c16.1-36.9,53.3-62.8,96.7-62.8
	c45.8,0,84.5,28.6,99.1,68.8c6.5-2.1,13.4-3.3,20.5-3.3c32.1,0,58.9,22.3,65.2,52.1c0.9,4.2,1.5,8.6,1.5,13.1c0,2.4,0,7.7-0.3,8.6
	c-0.9,2.7-3.6,5.9-6.8,5.9h-81.9h-42.6H232.1h-39.9h-111c-3.3,0-6-3.2-6.8-6.2C72.5,150.8,73.7,137.4,74.3,133.3z"/>
<linearGradient id="SVGID_2_" gradientUnits="userSpaceOnUse" x1="6113.5576" y1="151.8669" x2="6515.439" y2="151.8669" gradientTransform="matrix(-1 0 0 1 6715.4722 0)">
	<stop  offset="0" style="stop-color:#FFFFFF"/>
	<stop  offset="0.7871" style="stop-color:#E6F9FC"/>
</linearGradient>
<path class="st2" d="M201,197.5c6.3-37.2,39-65.5,78.6-65.5c14.3,0,27.7,3.6,39.3,10.1c16.1-36.9,53.3-62.8,96.7-62.8
	c45.8,0,84.5,28.6,99.1,68.8c6.5-2.1,13.4-3.3,20.5-3.3c32.1,0,58.9,22.3,65.2,52.1c0.9,4.2,1.5,8.6,1.5,13.1c0,2.4,0,7.7-0.3,8.6
	c-0.9,2.7-3.6,5.9-6.8,5.9h-81.9h-42.6H358.7h-39.9h-111c-3.3,0-6-3.2-6.8-6.2C199.2,215,200.4,201.7,201,197.5z"/>
<linearGradient id="SVGID_3_" gradientUnits="userSpaceOnUse" x1="6670.3105" y1="117.4296" x2="7072.1924" y2="117.4296" gradientTransform="matrix(-1 0 0 1 6715.4722 0)">
	<stop  offset="0" style="stop-color:#FFFFFF"/>
	<stop  offset="0.7871" style="stop-color:#E6F9FC"/>
</linearGradient>
<path class="st3" d="M-355.8,163.1c6.3-37.2,39-65.5,78.6-65.5c14.3,0,27.7,3.6,39.3,10.1c16.1-36.9,53.3-62.8,96.7-62.8
	c45.8,0,84.5,28.6,99.1,68.8c6.5-2.1,13.4-3.3,20.5-3.3c32.1,0,58.9,22.3,65.2,52.1c0.9,4.2,1.5,8.6,1.5,13.1c0,2.4,0,7.7-0.3,8.6
	c-0.9,2.7-3.6,5.9-6.8,5.9h-81.9h-42.6H-198h-39.9h-111c-3.3,0-6-3.2-6.8-6.2C-357.6,180.5-356.4,167.2-355.8,163.1z"/>
<linearGradient id="SVGID_4_" gradientUnits="userSpaceOnUse" x1="4263.0342" y1="102.2932" x2="4664.916" y2="102.2932" gradientTransform="matrix(-1 0 0 1 6715.4722 0)">
	<stop  offset="0" style="stop-color:#FFFFFF"/>
	<stop  offset="0.7871" style="stop-color:#E6F9FC"/>
</linearGradient>
<path class="st4" d="M2051.5,147.9c6.3-37.2,39-65.5,78.6-65.5c14.3,0,27.7,3.6,39.3,10.1c16.1-36.9,53.3-62.8,96.7-62.8
	c45.8,0,84.5,28.6,99.1,68.8c6.5-2.1,13.4-3.3,20.5-3.3c32.1,0,58.9,22.3,65.2,52.1c0.9,4.2,1.5,8.6,1.5,13.1c0,2.4,0,7.7-0.3,8.6
	c-0.9,2.7-3.6,5.9-6.8,5.9h-81.9h-42.6h-111.6h-39.9h-111c-3.3,0-6-3.2-6.8-6.2C2049.7,165.4,2050.9,152.1,2051.5,147.9z"/>
<linearGradient id="SVGID_5_" gradientUnits="userSpaceOnUse" x1="4618.7754" y1="146.8405" x2="4904.3975" y2="146.8405" gradientTransform="matrix(-1 0 0 1 6715.4722 0)">
	<stop  offset="0" style="stop-color:#FFFFFF"/>
	<stop  offset="0.7871" style="stop-color:#E6F9FC"/>
</linearGradient>
<path class="st5" d="M1811.7,179.3c4.4-26.4,27.7-46.5,55.8-46.5c10.2,0,19.7,2.5,27.9,7.2c11.4-26.2,37.9-44.6,68.8-44.6
	c32.6,0,60.1,20.3,70.4,48.9c4.7-1.5,9.5-2.3,14.6-2.3c22.8,0,41.9,15.9,46.3,37c0.6,3,1.1,6.1,1.1,9.3c0,1.7,0,5.4-0.2,6.1
	c-0.6,1.9-2.5,4.2-4.9,4.2h-58.2h-30.3h-79.3h-28.3h-78.9c-2.3,0-4.2-2.3-4.9-4.4C1810.5,191.7,1811.3,182.2,1811.7,179.3z"/>
<linearGradient id="SVGID_7_" gradientUnits="userSpaceOnUse" x1="4927.2617" y1="138.1587" x2="5264.3677" y2="138.1587" gradientTransform="matrix(-1 0 0 1 6715.4722 0)">
	<stop  offset="0" style="stop-color:#FFFFFF"/>
	<stop  offset="0.7871" style="stop-color:#E6F9FC"/>
</linearGradient>
<path class="st6" d="M1451.9,176.4c5.2-31.2,32.7-54.9,65.9-54.9c12,0,23.2,3,33,8.5c13.5-31,44.7-52.7,81.1-52.7
	c38.5,0,70.9,24,83.1,57.7c5.5-1.7,11.2-2.7,17.2-2.7c27,0,49.4,18.7,54.7,43.7c0.7,3.5,1.2,7.2,1.2,11c0,2,0,6.4-0.2,7.2
	c-0.7,2.2-3,4.9-5.7,4.9h-68.7h-35.7h-93.6h-33.5h-93.1c-2.7,0-5-2.7-5.7-5.2C1450.4,191.1,1451.4,179.9,1451.9,176.4z"/>
<path class="st0" d="M496.4,182.3c-0.5-7.4,4.5-14.4,12.1-16.2c2.7-0.7,5.5-0.6,8,0.1c1.4-7.8,7.3-14.5,15.7-16.6
	c8.8-2.1,17.6,1.6,22.2,8.6c1.2-0.7,2.4-1.3,3.8-1.6c6.2-1.5,12.4,1.6,14.9,7c0.4,0.8,0.7,1.6,0.9,2.4c0.1,0.5,0.4,1.5,0.3,1.7
	c0,0.6-0.4,1.3-1,1.4l-15.7,3.8l-8.2,2l-21.5,5.2l-7.7,1.9l-21.3,5.2c-0.6,0.2-1.3-0.3-1.6-0.9C496.8,185.7,496.5,183.1,496.4,182.3
	z"/>
<linearGradient id="SVGID_8_" gradientUnits="userSpaceOnUse" x1="5609.3457" y1="114.7262" x2="5802.293" y2="114.7262" gradientTransform="matrix(-1 0 0 1 6715.4722 0)">
	<stop  offset="0" style="stop-color:#FFFFFF"/>
	<stop  offset="0.7871" style="stop-color:#E6F9FC"/>
</linearGradient>
<path class="st7" d="M913.6,136.6c3-17.9,18.7-31.4,37.7-31.4c6.9,0,13.3,1.7,18.9,4.9c7.7-17.7,25.6-30.2,46.4-30.2
	c22,0,40.6,13.7,47.6,33c3.1-1,6.4-1.6,9.9-1.6c15.4,0,28.3,10.7,31.3,25c0.4,2,0.7,4.1,0.7,6.3c0,1.1,0,3.7-0.1,4.1
	c-0.4,1.3-1.7,2.8-3.3,2.8h-39.3H1043h-53.6h-19.1h-53.3c-1.6,0-2.9-1.5-3.3-3C912.8,145,913.3,138.6,913.6,136.6z"/>
<g>
	
		<linearGradient id="SVGID_9_" gradientUnits="userSpaceOnUse" x1="5444.708" y1="149.5562" x2="5525.6484" y2="149.5562" gradientTransform="matrix(-1 0 0 1 6715.4722 0)">
		<stop  offset="0" style="stop-color:#FFFFFF"/>
		<stop  offset="1" style="stop-color:#E6F9FC"/>
	</linearGradient>
	<path class="st8" d="M1198.1,173.9h64.5c4.5,0,8.2-3.7,8.2-8.2v0c0-22.4-18.1-40.5-40.5-40.5h0c-22.4,0-40.5,18.1-40.5,40.5v0
		C1189.8,170.2,1193.5,173.9,1198.1,173.9z"/>
	
		<linearGradient id="SVGID_10_" gradientUnits="userSpaceOnUse" x1="5509.5342" y1="157.7197" x2="5563.3433" y2="157.7197" gradientTransform="matrix(-1 0 0 1 6715.4722 0)">
		<stop  offset="0" style="stop-color:#E6F9FC"/>
		<stop  offset="1" style="stop-color:#FFFFFF"/>
	</linearGradient>
	<path class="st9" d="M1157.6,173.9h42.9c3,0,5.5-2.5,5.5-5.5v0c0-14.9-12-26.9-26.9-26.9h0c-14.9,0-26.9,12-26.9,26.9v0
		C1152.1,171.5,1154.6,173.9,1157.6,173.9z"/>
</g>
<g>
	
		<linearGradient id="SVGID_11_" gradientUnits="userSpaceOnUse" x1="-10668.4541" y1="50.9182" x2="-10587.5137" y2="50.9182" gradientTransform="matrix(1 0 0 1 11394.4004 0)">
		<stop  offset="0" style="stop-color:#FFFFFF"/>
		<stop  offset="1" style="stop-color:#E6F9FC"/>
	</linearGradient>
	<path class="st10" d="M798.6,75.3h-64.5c-4.5,0-8.2-3.7-8.2-8.2v0c0-22.4,18.1-40.5,40.5-40.5h0c22.4,0,40.5,18.1,40.5,40.5v0
		C806.9,71.6,803.2,75.3,798.6,75.3z"/>
	
		<linearGradient id="SVGID_12_" gradientUnits="userSpaceOnUse" x1="-10603.6279" y1="59.0816" x2="-10549.8184" y2="59.0816" gradientTransform="matrix(1 0 0 1 11394.4004 0)">
		<stop  offset="0" style="stop-color:#E6F9FC"/>
		<stop  offset="1" style="stop-color:#FFFFFF"/>
	</linearGradient>
	<path class="st11" d="M839.1,75.3h-42.9c-3,0-5.5-2.5-5.5-5.5v0c0-14.9,12-26.9,26.9-26.9h0c14.9,0,26.9,12,26.9,26.9v0
		C844.6,72.8,842.1,75.3,839.1,75.3z"/>
</g>
<linearGradient id="SVGID_13_" gradientUnits="userSpaceOnUse" x1="5302.7671" y1="43.5495" x2="5350.4424" y2="43.5495" gradientTransform="matrix(-1 0 0 1 6715.4722 0)">
	<stop  offset="0" style="stop-color:#E6F9FC"/>
	<stop  offset="1" style="stop-color:#FFFFFF"/>
</linearGradient>
<path class="st12" d="M1369.9,57.9h38c2.7,0,4.9-2.2,4.9-4.9v0c0-13.2-10.7-23.8-23.8-23.8l0,0c-13.2,0-23.8,10.7-23.8,23.8v0
	C1365,55.7,1367.2,57.9,1369.9,57.9z"/>
<linearGradient id="SVGID_14_" gradientUnits="userSpaceOnUse" x1="6706.4067" y1="40.4782" x2="6754.082" y2="40.4782" gradientTransform="matrix(-1 0 0 1 6715.4722 0)">
	<stop  offset="0" style="stop-color:#E6F9FC"/>
	<stop  offset="1" style="stop-color:#FFFFFF"/>
</linearGradient>
<path class="st13" d="M-33.8,54.8h38c2.7,0,4.9-2.2,4.9-4.9v0c0-13.2-10.7-23.8-23.8-23.8h0c-13.2,0-23.8,10.7-23.8,23.8v0
	C-38.6,52.7-36.4,54.8-33.8,54.8z"/>
<g>
	<path class="st14" d="M2213.4,78.5l28.8-28.7c0.7-0.7,1.9-0.7,2.7,0l28.8,28.7c0.7,0.7,0.7,1.9,0,2.7l-28.8,28.6
		c-0.7,0.7-1.9,0.7-2.7,0l-28.8-28.6C2212.6,80.4,2212.6,79.2,2213.4,78.5z"/>
	<path class="st15" d="M2228.2,76.8c1-1,2.6-1,3.6,0l9.4,9.4V66.2c0-1.3,0.9-2.3,2.2-2.3c1.3,0,2.4,1,2.4,2.3v19.9l9.4-9.3
		c1-1,2.6-1,3.6,0c1,1,1,2.6,0,3.6l-13,13v65.9c0,1.3-1,2.3-2.3,2.3c-1.3,0-2.3-1-2.3-2.3V93.4c0,0-0.1-0.1-0.1-0.1l-12.9-12.9
		C2227.2,79.4,2227.2,77.8,2228.2,76.8z"/>
</g>
<g>
	<path class="st14" d="M1707.5,109.3l28.8-28.7c0.7-0.7,1.9-0.7,2.7,0l28.8,28.7c0.7,0.7,0.7,1.9,0,2.7l-28.8,28.6
		c-0.7,0.7-1.9,0.7-2.7,0l-28.8-28.6C1706.7,111.3,1706.7,110.1,1707.5,109.3z"/>
	<path class="st15" d="M1722.3,107.7c1-1,2.6-1,3.6,0l9.4,9.4V97.1c0-1.3,0.9-2.3,2.2-2.3c1.3,0,2.4,1,2.4,2.3V117l9.4-9.3
		c1-1,2.6-1,3.6,0c1,1,1,2.6,0,3.6l-13,13v65.9c0,1.3-1,2.3-2.3,2.3s-2.3-1-2.3-2.3v-65.9c0,0-0.1-0.1-0.1-0.1l-12.9-12.9
		C1721.3,110.3,1721.3,108.7,1722.3,107.7z"/>
</g>
<g>
	<g>
		<path class="st16" d="M2004.2,80.7l18.4-18.4c0.5-0.5,1.2-0.5,1.7,0l18.5,18.4c0.5,0.5,0.5,1.2,0,1.7l-18.5,18.4
			c-0.5,0.5-1.2,0.5-1.7,0l-18.4-18.4C2003.7,82,2003.7,81.2,2004.2,80.7z"/>
		<path class="st17" d="M2013.7,79.7c0.6-0.6,1.7-0.6,2.3,0l6,6V72.9c0-0.8,0.6-1.5,1.4-1.5c0.8,0,1.5,0.7,1.5,1.5v12.7l6-6
			c0.6-0.6,1.7-0.6,2.3,0c0.7,0.6,0.7,1.6,0,2.3l-8.3,8.3v42.2c0,0.8-0.7,1.5-1.5,1.5s-1.5-0.7-1.5-1.5V90.3c0,0,0,0-0.1,0l-8.3-8.3
			C2013.1,81.3,2013.1,80.3,2013.7,79.7z"/>
	</g>
	<g>
		<path class="st17" d="M2024.3,115.6l-0.3,0.3c-0.4,0.4-1.1,0.4-1.5,0l-11.5-11.5c-0.4-0.4-0.4-1.1,0-1.5l0.3-0.3
			c0.4-0.4,1.1-0.4,1.5,0l11.5,11.5C2024.7,114.5,2024.7,115.2,2024.3,115.6z"/>
		<path class="st16" d="M2019.2,102.6l-7-7c-0.4-0.4-1-0.4-1.4,0l-7,7c-0.4,0.4-0.4,1,0,1.4l7,7c0.4,0.4,1,0.4,1.4,0l7-7
			C2019.6,103.6,2019.6,103,2019.2,102.6z"/>
	</g>
</g>
<linearGradient id="SVGID_15_" gradientUnits="userSpaceOnUse" x1="5042.8267" y1="160.7027" x2="5444.708" y2="160.7027" gradientTransform="matrix(-1 0 0 1 6715.4722 0)">
	<stop  offset="0" style="stop-color:#FFFFFF"/>
	<stop  offset="0.7871" style="stop-color:#E6F9FC"/>
</linearGradient>
<path class="st18" d="M1271.7,206.3c6.3-37.2,39-65.5,78.6-65.5c14.3,0,27.7,3.6,39.3,10.1c16.1-36.9,53.3-62.8,96.7-62.8
	c45.8,0,84.5,28.6,99.1,68.8c6.5-2.1,13.4-3.3,20.5-3.3c32.1,0,58.9,22.3,65.2,52.1c0.9,4.2,1.5,8.6,1.5,13.1c0,2.4,0,7.7-0.3,8.6
	c-0.9,2.7-3.6,5.9-6.8,5.9h-81.9h-42.6h-111.6h-39.9h-111c-3.3,0-6-3.2-6.8-6.2C1269.9,223.8,1271.1,210.5,1271.7,206.3z"/>
<g>
	
		<linearGradient id="SVGID_16_" gradientUnits="userSpaceOnUse" x1="1794.2133" y1="-342.4484" x2="2289.6504" y2="-342.4484" gradientTransform="matrix(-1.5194 3.019424e-03 -3.019424e-03 1.3235 5211.627 657.2109)">
		<stop  offset="0.2257" style="stop-color:#429952"/>
		<stop  offset="1" style="stop-color:#50AD87"/>
	</linearGradient>
	<path class="st19" d="M2109.3,121.3c-171.8-1.3-329.5,75.4-375.9,176l752.8,0.9C2430.3,196.8,2281.1,122.6,2109.3,121.3z"/>
</g>
<g>
	
		<linearGradient id="SVGID_17_" gradientUnits="userSpaceOnUse" x1="759.1399" y1="-426.1535" x2="1254.577" y2="-426.1535" gradientTransform="matrix(-2.0885 9.836298e-03 -9.836301e-03 1.4502 3553.2239 871.0122)">
		<stop  offset="0" style="stop-color:#429952"/>
		<stop  offset="1" style="stop-color:#5DB671"/>
	</linearGradient>
	<path class="st20" d="M1454,165.6c-236.1-0.7-453.3,84-517.4,194.4l1034.7-2.2C1894.8,247,1690.1,166.3,1454,165.6z"/>
</g>
<g>
	<path class="st16" d="M1841.1,73.6l44.9-44.8c1.1-1.1,3-1.1,4.2,0l45,44.8c1.2,1.2,1.2,3,0,4.2l-45,44.7c-1.1,1.1-3,1.1-4.2,0
		l-44.9-44.7C1839.9,76.6,1839.9,74.7,1841.1,73.6z"/>
	<path class="st17" d="M1864.3,71c1.5-1.5,4.1-1.5,5.6,0l14.7,14.7V54.5c0-2,1.5-3.6,3.4-3.6s3.7,1.6,3.7,3.6v31.1l14.6-14.6
		c1.5-1.5,4.1-1.5,5.6,0c1.6,1.5,1.6,4,0,5.6l-20.2,20.3v102.9c0,2-1.6,3.6-3.6,3.6s-3.6-1.6-3.6-3.6v-103c0,0-0.1-0.1-0.1-0.1
		l-20.2-20.2C1862.7,75,1862.7,72.5,1864.3,71z"/>
</g>
<g>
	<path class="st16" d="M1040,61.9l36.1-36c0.9-0.9,2.4-0.9,3.3,0l36.2,36c0.9,0.9,0.9,2.4,0,3.4l-36.2,36c-0.9,0.9-2.4,0.9-3.3,0
		l-36.1-36C1039,64.3,1039,62.8,1040,61.9z"/>
	<path class="st17" d="M1058.6,59.8c1.2-1.2,3.3-1.2,4.5,0l11.8,11.8V46.5c0-1.6,1.2-2.9,2.8-2.9s3,1.3,3,2.9v25l11.8-11.7
		c1.2-1.2,3.3-1.2,4.5,0c1.3,1.2,1.3,3.2,0,4.5l-16.3,16.3v82.8c0,1.6-1.3,2.9-2.9,2.9c-1.6,0-2.9-1.3-2.9-2.9V80.6
		c0,0-0.1-0.1-0.1-0.1l-16.2-16.3C1057.4,63,1057.4,61,1058.6,59.8z"/>
</g>
<g>
	<path class="st16" d="M246,63.6l44-43.8c1.1-1.1,2.9-1.1,4.1,0l44,43.8c1.1,1.1,1.1,3,0,4.1l-44,43.8c-1.1,1.1-2.9,1.1-4.1,0
		l-44-43.8C244.9,66.6,244.9,64.7,246,63.6z"/>
	<path class="st17" d="M291,148.4l0.7,0.7c1.1,1.1,3,1.1,4.1,0l30.3-30.3c1.1-1.1,1.1-3,0-4.1l-0.7-0.7c-1.1-1.1-3-1.1-4.1,0
		L291,144.4C289.9,145.5,289.9,147.3,291,148.4z"/>
	<path class="st16" d="M304.4,114.2l18.4-18.3c1-1,2.7-1,3.7,0l18.4,18.3c1,1,1,2.7,0,3.8l-18.4,18.3c-1,1-2.7,1-3.7,0l-18.4-18.3
		C303.4,116.9,303.4,115.2,304.4,114.2z"/>
	<path class="st17" d="M292.4,147l-0.7,0.7c-1.1,1.1-3,1.1-4.1,0l-20.2-20.2c-1.1-1.1-1.1-3,0-4.1l0.7-0.7c1.1-1.1,3-1.1,4.1,0
		l20.2,20.2C293.5,144.1,293.5,145.9,292.4,147z"/>
	<path class="st16" d="M282.3,122.5L269.7,110c-0.7-0.7-1.8-0.7-2.5,0l-12.5,12.5c-0.7,0.7-0.7,1.8,0,2.6l12.5,12.5
		c0.7,0.7,1.8,0.7,2.5,0l12.5-12.5C283,124.3,283,123.2,282.3,122.5z"/>
	<path class="st17" d="M268.7,61.1c1.5-1.5,4-1.5,5.5,0l14.4,14.3V44.9c0-1.9,1.4-3.5,3.4-3.5c1.9,0,3.6,1.6,3.6,3.5v30.4l14.3-14.3
		c1.5-1.5,4-1.5,5.5,0c1.6,1.5,1.6,3.9,0,5.5l-19.8,19.8v100.7c0,1.9-1.6,3.5-3.5,3.5c-1.9,0-3.5-1.6-3.5-3.5V86.4
		c0,0-0.1-0.1-0.1-0.1l-19.7-19.8C267.2,65,267.2,62.6,268.7,61.1z"/>
</g>
<g>
	<rect x="1224.5" y="94.1" class="st21" width="138.5" height="88.1"/>
	<rect x="1234.7" y="118" class="st22" width="118.5" height="36.4"/>
	<rect x="1234.7" y="151.3" class="st23" width="118.5" height="5.8"/>
	<rect x="1224.5" y="168.2" class="st23" width="138.5" height="43.7"/>
</g>
<g>
	<g>
		<g>
			<polygon class="st24" points="673.1,153.3 551.3,153.3 551.3,115.5 612.2,89.7 673.1,115.5 			"/>
			<polygon class="st25" points="673.1,221 551.3,221 551.3,122.6 612.2,96.8 673.1,122.6 			"/>
			<rect x="591.7" y="74.9" class="st26" width="40.9" height="118.4"/>
			<path class="st24" d="M622.4,178.1H602v-53.4c0-4.8,3.9-8.8,8.8-8.8h2.9c4.8,0,8.8,3.9,8.8,8.8V178.1z"/>
			<g>
				<circle class="st27" cx="612.2" cy="95.5" r="13.1"/>
				<circle class="st15" cx="612.2" cy="95.5" r="1.8"/>
				<rect x="611.3" y="85.2" class="st15" width="1.8" height="10.9"/>
				
					<rect x="615.9" y="90.7" transform="matrix(-9.751610e-02 0.9952 -0.9952 -9.751610e-02 772.6555 -508.3385)" class="st15" width="1.8" height="10.9"/>
			</g>
			<rect x="591.7" y="68.9" class="st24" width="40.9" height="5.9"/>
			
				<rect x="602.5" y="49.9" transform="matrix(-1.836970e-16 1 -1 -1.836970e-16 677.3149 -547.0975)" class="st24" width="19.5" height="30.4"/>
			<path class="st15" d="M603.6,68.9V58.1c0-1.5,1.2-2.8,2.8-2.8h0.9c1.5,0,2.8,1.2,2.8,2.8v10.8H603.6z"/>
			<path class="st15" d="M614,68.9V58.1c0-1.5,1.2-2.8,2.8-2.8h0.9c1.5,0,2.8,1.2,2.8,2.8v10.8H614z"/>
			
				<rect x="609.6" y="32.3" transform="matrix(-1.836970e-16 1 -1 -1.836970e-16 665.0054 -559.4071)" class="st24" width="5.1" height="40.9"/>
			<polygon class="st15" points="606.7,25.9 617,25.8 626.9,50.2 597.1,50.3 			"/>
		</g>
		<g>
			<polyline class="st25" points="551.3,126 551.3,122.5 612.2,96.7 673.1,122.5 673.1,126 			"/>
			<rect x="591.7" y="74.7" class="st26" width="40.9" height="67.2"/>
			<path class="st24" d="M622.4,144.9h-20.5v-20.3c0-4.8,3.9-8.8,8.8-8.8h2.9c4.8,0,8.8,3.9,8.8,8.8V144.9z"/>
			<path class="st26" d="M581.5,154.8H561v-20.3c0-4.8,3.9-8.8,8.8-8.8h2.9c4.8,0,8.8,3.9,8.8,8.8V154.8z"/>
			<path class="st26" d="M663,154.8h-20.5v-20.3c0-4.8,3.9-8.8,8.8-8.8h2.9c4.8,0,8.8,3.9,8.8,8.8V154.8z"/>
			<g>
				<circle class="st27" cx="612.2" cy="95.4" r="13.1"/>
				<circle class="st15" cx="612.2" cy="95.4" r="1.8"/>
				<rect x="611.2" y="85.1" class="st15" width="1.8" height="10.9"/>
				
					<rect x="615.8" y="90.6" transform="matrix(-9.751610e-02 0.9952 -0.9952 -9.751610e-02 772.4818 -508.4207)" class="st15" width="1.8" height="10.9"/>
			</g>
			<rect x="591.7" y="68.8" class="st24" width="40.9" height="5.9"/>
			
				<rect x="602.4" y="49.8" transform="matrix(-1.836970e-16 1 -1 -1.836970e-16 677.1455 -547.1677)" class="st24" width="19.5" height="30.4"/>
			<path class="st15" d="M603.5,68.8V58c0-1.5,1.2-2.8,2.8-2.8h0.9c1.5,0,2.8,1.2,2.8,2.8v10.8H603.5z"/>
			<path class="st15" d="M614,68.8V58c0-1.5,1.2-2.8,2.8-2.8h0.9c1.5,0,2.8,1.2,2.8,2.8v10.8H614z"/>
			
				<rect x="609.6" y="32.2" transform="matrix(-1.836970e-16 1 -1 -1.836970e-16 664.8359 -559.4774)" class="st24" width="5.1" height="40.9"/>
			<polygon class="st15" points="606.7,25.7 616.9,25.7 626.9,50.1 597,50.2 			"/>
		</g>
	</g>
	<rect x="561" y="149.5" class="st24" width="20.5" height="5.3"/>
</g>
<g>
	<rect x="-13.3" y="80.8" class="st26" width="112.1" height="108.3"/>
	<rect x="-13.3" y="80.8" class="st25" width="112.1" height="51"/>
	<rect x="64.5" y="76.1" class="st28" width="12" height="14.7"/>
	<rect x="33.6" y="131.8" class="st15" width="18.6" height="53.3"/>
	<rect x="8.1" y="76.1" class="st28" width="12" height="14.7"/>
	<path class="st29" d="M89,122.7h-9.8c-0.5,0-1-0.5-1-1l0,0v-15.2c0-3.2,2.7-5.9,5.9-5.9l0,0l0,0c3.2,0,5.9,2.7,5.9,5.9l0,0v15.2
		C89.7,122.2,89.5,122.7,89,122.7L89,122.7L89,122.7z"/>
	<path class="st29" d="M61,122.7h-9.8c-0.5,0-1-0.5-1-1l0,0v-15.2c0-3.2,2.7-5.9,5.9-5.9l0,0l0,0c3.2,0,5.9,2.7,5.9,5.9l0,0v15.2
		C62,122.2,61.8,122.7,61,122.7z"/>
	<path class="st29" d="M33.6,122.7h-9.8c-0.5,0-1-0.5-1-1l0,0v-15.2c0-3.2,2.7-5.9,5.9-5.9l0,0l0,0c3.2,0,5.9,2.7,5.9,5.9l0,0v15.2
		C34.3,122.2,34.1,122.7,33.6,122.7L33.6,122.7L33.6,122.7z"/>
	<path class="st29" d="M6.1,122.7h-9.8c-0.5,0-1-0.5-1-1l0,0v-15.2c0-3.2,2.7-5.9,5.9-5.9l0,0l0,0c3.2,0,5.9,2.7,5.9,5.9l0,0v15.2
		C6.8,122.2,6.6,122.7,6.1,122.7L6.1,122.7L6.1,122.7z"/>
	<rect x="-13.3" y="80.8" class="st15" width="112.1" height="14"/>
</g>
<g>
	<rect x="1495.4" y="109.3" class="st21" width="138.7" height="102.9"/>
	<rect x="1362.9" y="44.9" class="st30" width="132.5" height="167.8"/>
	<rect x="1411.8" y="135.8" class="st22" width="74.2" height="50.3"/>
	<rect x="1372.6" y="58.5" class="st22" width="113.2" height="67.3"/>
	<rect x="1511.1" y="120.1" class="st22" width="29.5" height="36.2"/>
	<rect x="1550.3" y="120.1" class="st22" width="29.5" height="36.2"/>
	<rect x="1589.5" y="120.1" class="st22" width="29.5" height="36.2"/>
	<rect x="1411.8" y="183.1" class="st26" width="74.2" height="5.6"/>
	<polygon class="st23" points="1465.4,99.5 1451.1,112.4 1436.8,99.5 1436.8,63.8 1465.4,63.8 	"/>
	<g>
		<path class="st26" d="M1372.4,146.8L1372.4,146.8c-5.2,0-9.5-4.1-9.5-9.1v-17.6h18.9v17.6C1381.8,142.7,1377.6,146.8,1372.4,146.8
			z"/>
		<path class="st26" d="M1391.3,146.8L1391.3,146.8c-5.2,0-9.5-4.1-9.5-9.1v-17.6h18.9v17.6C1400.8,142.7,1396.5,146.8,1391.3,146.8
			z"/>
		<path class="st26" d="M1410.2,146.8L1410.2,146.8c-5.2,0-9.5-4.1-9.5-9.1v-17.6h18.9v17.6C1419.7,142.7,1415.4,146.8,1410.2,146.8
			z"/>
		<path class="st26" d="M1429.1,146.8L1429.1,146.8c-5.2,0-9.5-4.1-9.5-9.1v-17.6h18.9v17.6C1438.6,142.7,1434.4,146.8,1429.1,146.8
			z"/>
		<path class="st26" d="M1448.1,146.8L1448.1,146.8c-5.2,0-9.5-4.1-9.5-9.1v-17.6h18.9v17.6C1457.5,142.7,1453.3,146.8,1448.1,146.8
			z"/>
		<path class="st26" d="M1467,146.8L1467,146.8c-5.2,0-9.5-4.1-9.5-9.1v-17.6h18.9v17.6C1476.5,142.7,1472.2,146.8,1467,146.8z"/>
		<path class="st26" d="M1485.9,146.8L1485.9,146.8c-5.2,0-9.5-4.1-9.5-9.1v-17.6h18.9v17.6C1495.4,142.7,1491.1,146.8,1485.9,146.8
			z"/>
	</g>
	<g>
		<path class="st26" d="M1372.4,73.5L1372.4,73.5c-5.2,0-9.5-4.4-9.5-9.8V44.9h18.9v18.8C1381.8,69.2,1377.6,73.5,1372.4,73.5z"/>
		<path class="st26" d="M1391.3,73.5L1391.3,73.5c-5.2,0-9.5-4.4-9.5-9.8V44.9h18.9v18.8C1400.8,69.2,1396.5,73.5,1391.3,73.5z"/>
		<path class="st26" d="M1410.2,73.5L1410.2,73.5c-5.2,0-9.5-4.4-9.5-9.8V44.9h18.9v18.8C1419.7,69.2,1415.4,73.5,1410.2,73.5z"/>
		<path class="st26" d="M1429.1,73.5L1429.1,73.5c-5.2,0-9.5-4.4-9.5-9.8V44.9h18.9v18.8C1438.6,69.2,1434.4,73.5,1429.1,73.5z"/>
		<path class="st26" d="M1448.1,73.5L1448.1,73.5c-5.2,0-9.5-4.4-9.5-9.8V44.9h18.9v18.8C1457.5,69.2,1453.3,73.5,1448.1,73.5z"/>
		<path class="st26" d="M1467,73.5L1467,73.5c-5.2,0-9.5-4.4-9.5-9.8V44.9h18.9v18.8C1476.5,69.2,1472.2,73.5,1467,73.5z"/>
		<path class="st26" d="M1485.9,73.5L1485.9,73.5c-5.2,0-9.5-4.4-9.5-9.8V44.9h18.9v18.8C1495.4,69.2,1491.1,73.5,1485.9,73.5z"/>
	</g>
	<rect x="1362.9" y="199.3" class="st31" width="132.5" height="13.4"/>
	<path class="st15" d="M1402.2,212.7h-29.6v-43.3c0-9.2,5.7-16.7,14.8-16.7l0,0c9.4,0,14.8,7.5,14.8,16.7V212.7z"/>
	<path class="st0" d="M1503.1,217.2c-1.5-9.1-9.6-16.1-19.3-16.1c-3.5,0-6.8,0.9-9.7,2.5c-4-9.1-13.1-15.4-23.8-15.4
		c-11.3,0-20.8,7-24.4,16.9c-1.6-0.5-3.3-0.8-5-0.8c-7.9,0-14.5,5.5-16,12.8c-0.2,1-0.4,2.1-0.4,3.2c0,0.6,0,1.9,0.1,2.1
		c0.2,0.7,0.9,1.4,1.7,1.4h20.1h10.5h27.4h9.8h27.3c0.8,0,1.5-0.8,1.7-1.5C1503.6,221.5,1503.3,218.2,1503.1,217.2z"/>
	<path class="st0" d="M1583.1,207.7c-1.2-6.9-7.2-12.1-14.5-12.1c-2.6,0-5.1,0.7-7.3,1.9c-3-6.8-9.8-11.6-17.9-11.6
		c-8.5,0-15.6,5.3-18.3,12.7c-1.2-0.4-2.5-0.6-3.8-0.6c-5.9,0-10.9,4.1-12,9.6c-0.2,0.8-0.3,1.6-0.3,2.4c0,0.4,0,1.4,0.1,1.6
		c0.2,0.5,0.7,1.1,1.3,1.1h15.1h7.9h20.6h7.4h20.5c0.6,0,1.1-0.6,1.3-1.1C1583.4,211,1583.2,208.5,1583.1,207.7z"/>
	<path class="st0" d="M1633.4,206.7c-1.4-8.3-8.7-14.7-17.6-14.7c-3.2,0-6.2,0.8-8.8,2.3c-3.6-8.3-11.9-14.1-21.7-14.1
		c-10.3,0-18.9,6.4-22.2,15.4c-1.5-0.5-3-0.7-4.6-0.7c-7.2,0-13.2,5-14.6,11.7c-0.2,0.9-0.3,1.9-0.3,2.9c0,0.5,0,1.7,0.1,1.9
		c0.2,0.6,0.8,1.3,1.5,1.3h18.3h9.5h25h8.9h24.9c0.7,0,1.3-0.7,1.5-1.4C1633.8,210.6,1633.5,207.6,1633.4,206.7z"/>
	<polygon class="st23" points="1418.9,177.1 1418.9,152.3 1465.2,164.7 	"/>
	<path class="st30" d="M1418.9,152.3c0,0,8.4,2.3,8.6,2.3c0.2,0.1,0,20.2,0,20.2l-8.6,2.3V152.3z"/>
	<g>
		<path class="st23" d="M1400.4,92.8l-10.3,5.9l-7.1-12.4c-1.6-2.8-0.7-6.5,2.2-8.1v0c2.8-1.6,6.5-0.7,8.1,2.2L1400.4,92.8z"/>
		<path class="st23" d="M1400.1,92.8l10.3,5.9l7.1-12.4c1.6-2.8,0.7-6.5-2.2-8.1v0c-2.8-1.6-6.5-0.7-8.1,2.2L1400.1,92.8z"/>
		<path class="st23" d="M1401.9,112.2h-3.3c-8.5,0-15.4-6.9-15.4-15.4v0c0-8.5,6.9-15.4,15.4-15.4h3.3c8.5,0,15.4,6.9,15.4,15.4v0
			C1417.3,105.2,1410.4,112.2,1401.9,112.2z"/>
		<path class="st23" d="M1402,116h-3.5c-4.4,0-8-3.6-8-8V95.2c0-3,2.5-5.4,5.4-5.4h8.6c3,0,5.4,2.5,5.4,5.4V108
			C1410,112.4,1406.4,116,1402,116z"/>
		<path class="st30" d="M1400.2,109.1L1400.2,109.1c-2.7,0-4.9-2.2-4.9-4.9v0c0-0.7,0.6-1.3,1.3-1.3h7.1c0.7,0,1.3,0.6,1.3,1.3v0
			C1405.2,106.9,1403,109.1,1400.2,109.1z"/>
		<circle class="st27" cx="1392.6" cy="94.3" r="3"/>
		<circle class="st27" cx="1407.9" cy="94.3" r="3"/>
	</g>
	<rect x="1436.8" y="79.4" class="st30" width="28.6" height="4.6"/>
	<rect x="1436.8" y="88.6" class="st30" width="28.6" height="4.6"/>
</g>
<g>
	<path class="st14" d="M912.4,51.5L946,17.9c0.9-0.9,2.2-0.9,3.1,0l33.7,33.5c0.9,0.9,0.9,2.3,0,3.1l-33.7,33.5
		c-0.9,0.9-2.2,0.9-3.1,0l-33.6-33.5C911.5,53.7,911.5,52.3,912.4,51.5z"/>
	<path class="st15" d="M929.7,49.5c1.1-1.1,3.1-1.1,4.2,0l11,11V37.2c0-1.5,1.1-2.7,2.6-2.7c1.5,0,2.8,1.2,2.8,2.7v23.3l10.9-10.9
		c1.1-1.1,3.1-1.1,4.2,0c1.2,1.1,1.2,3,0,4.2l-15.2,15.2v77c0,1.5-1.2,2.7-2.7,2.7c-1.5,0-2.7-1.2-2.7-2.7V68.9c0,0-0.1-0.1-0.1-0.1
		l-15.1-15.1C928.6,52.5,928.6,50.7,929.7,49.5z"/>
</g>
<g>
	<g>
		<path class="st14" d="M428.9,129.6l28.4-28.3c0.7-0.7,1.9-0.7,2.6,0l28.4,28.3c0.7,0.7,0.7,1.9,0,2.6l-28.4,28.2
			c-0.7,0.7-1.9,0.7-2.6,0l-28.4-28.2C428.2,131.5,428.2,130.3,428.9,129.6z"/>
		<path class="st15" d="M443.6,128c1-1,2.6-1,3.5,0l9.3,9.3v-19.7c0-1.2,0.9-2.3,2.2-2.3s2.3,1,2.3,2.3v19.6l9.2-9.2
			c1-1,2.6-1,3.5,0c1,1,1,2.5,0,3.5l-12.8,12.8v65c0,1.2-1,2.3-2.3,2.3s-2.3-1-2.3-2.3v-65c0,0-0.1,0-0.1-0.1l-12.7-12.8
			C442.6,130.5,442.6,128.9,443.6,128z"/>
	</g>
</g>
<path class="st32" d="M2298.9,277.6c0,0-134.2-126-389.7-126s-227.3,67.8-443.9,66.9c-183.4-0.7-283.1-105.8-534.4-117.8
	C643.8,87,555.9,214,271.5,214s-460.1-97.6-460.1-97.6l11.6,161.2H2298.9z"/>
<linearGradient id="SVGID_18_" gradientUnits="userSpaceOnUse" x1="4332.9766" y1="225.2407" x2="6905.1948" y2="225.2407" gradientTransform="matrix(-1 0 0 1 6715.4722 0)">
	<stop  offset="0.1016" style="stop-color:#66B375"/>
	<stop  offset="0.3456" style="stop-color:#87CC8E"/>
	<stop  offset="0.5845" style="stop-color:#B0DC90"/>
	<stop  offset="0.7314" style="stop-color:#66B375"/>
</linearGradient>
<path class="st33" d="M2382.5,314.2c0,0-219-126-474.5-126s-227.3,67.8-443.9,66.9c-183.4-0.7-283.1-105.8-534.4-117.8
	c-287-13.7-374.9,113.3-659.3,113.3S-189.7,153-189.7,153l11.6,161.2H2382.5z"/>
<path class="st0" d="M468.2,230.1c-3.2-19.1-20-33.6-40.3-33.6c-7.3,0-14.2,1.8-20.2,5.2c-8.2-18.9-27.3-32.2-49.6-32.2
	c-23.5,0-43.4,14.7-50.9,35.3c-3.4-1.1-6.9-1.7-10.5-1.7c-16.5,0-30.2,11.5-33.4,26.7c-0.5,2.1-0.8,4.4-0.8,6.7c0,1.2,0,3.9,0.2,4.4
	c0.5,1.4,1.8,3,3.5,3h42H330h57.3h20.5h57c1.7,0,3.1-1.6,3.5-3.2C469.1,239.1,468.5,232.2,468.2,230.1z"/>
<g>
	<g>
		<path class="st14" d="M979.6,162.3l39.2-39c1-1,2.6-1,3.6,0l39.2,39c1,1,1,2.6,0,3.6l-39.2,39c-1,1-2.6,1-3.6,0l-39.2-39
			C978.6,164.9,978.6,163.3,979.6,162.3z"/>
		<path class="st15" d="M999.8,160c1.3-1.3,3.6-1.3,4.9,0l12.8,12.8v-27.2c0-1.7,1.3-3.1,3-3.1s3.2,1.4,3.2,3.1v27.1l12.7-12.7
			c1.3-1.3,3.6-1.3,4.9,0c1.4,1.3,1.4,3.5,0,4.9l-17.6,17.7v89.7c0,1.7-1.4,3.1-3.1,3.1s-3.1-1.4-3.1-3.1v-89.8c0,0-0.1-0.1-0.1-0.1
			l-17.6-17.6C998.5,163.5,998.5,161.4,999.8,160z"/>
	</g>
	<g>
		<path class="st15" d="M1022.7,236.1l-1.4,1.4c-0.7,0.7-1.8,0.7-2.4,0l-25.3-25.3c-0.7-0.7-0.7-1.8,0-2.4l1.4-1.4
			c0.7-0.7,1.8-0.7,2.4,0l25.3,25.3C1023.4,234.3,1023.4,235.4,1022.7,236.1z"/>
		<path class="st14" d="M1011.4,208.8L996.5,194c-0.8-0.8-2.2-0.8-3,0l-14.9,14.8c-0.8,0.8-0.8,2.2,0,3l14.9,14.8
			c0.8,0.8,2.2,0.8,3,0l14.9-14.8C1012.3,211,1012.3,209.6,1011.4,208.8z"/>
	</g>
</g>
<path class="st0" d="M1330.9,276.4c-3.2-19.1-20-33.6-40.3-33.6c-7.3,0-14.2,1.8-20.2,5.2c-8.2-18.9-27.3-32.2-49.6-32.2
	c-23.5,0-43.4,14.7-50.9,35.3c-3.4-1.1-6.9-1.7-10.5-1.7c-16.5,0-30.2,11.5-33.4,26.7c-0.5,2.1-0.8,4.4-0.8,6.7c0,1.2,0,3.9,0.2,4.4
	c0.5,1.4,1.8,3,3.5,3h42h21.8h57.3h20.5h57c1.7,0,3.1-1.6,3.5-3.2C1331.8,285.4,1331.2,278.6,1330.9,276.4z"/>
<path class="st0" d="M1373.3,280.2c-2.3-13.9-14.6-24.5-29.3-24.5c-5.3,0-10.3,1.3-14.7,3.8c-6-13.8-19.9-23.5-36.1-23.5
	c-17.1,0-31.6,10.7-37,25.7c-2.4-0.8-5-1.2-7.7-1.2c-12,0-22,8.3-24.3,19.5c-0.3,1.6-0.6,3.2-0.6,4.9c0,0.9,0,2.9,0.1,3.2
	c0.3,1,1.3,2.2,2.6,2.2h30.6h15.9h41.7h14.9h41.5c1.2,0,2.2-1.2,2.6-2.3C1374,286.7,1373.5,281.7,1373.3,280.2z"/>
<g>
	<path class="st28" d="M1163.9,110.4c-3.5-0.7-9.3-2.2-10.4-3.2c-1.2-1.2-0.8-12.7-0.5-14.7c0.1-0.9,0.9-4.3,3.4-4.3
		c2,0,3.4,2,3.2,4.5c-0.2,1.6-1.9,10-1.1,10.9c0.7,0.8,7.9,1.8,11.6,3.5c0.6,0.3,0.6,3,0,3.6
		C1169.7,111.2,1165.6,110.8,1163.9,110.4z"/>
	<path class="st34" d="M1161.5,86.8c-0.2,0.2-2.5,3.4-2.8,4.2s-2.8-1.5-3.5-1.4c-0.9,0.2-2.6-1.7-1.9-1.8c0.7-0.1,3.4-3.5,3.3-7.8
		C1156.7,78.7,1162.4,85.7,1161.5,86.8z"/>
	<g>
		<path class="st24" d="M1150.1,132.1c0,0-2.5,3.1-3,3.7s-0.4,2.1,0.3,2.8c1.4,1.4,2.5,0.7,3.8-0.6c1-1,3.2-2.8,3-4.1
			C1153.9,132.5,1152.1,130.1,1150.1,132.1z"/>
		<path class="st30" d="M1145.3,109.4c0,0,17.4,6.3,18.2,11.2c0.7,3.7-9,14.4-11.1,17.2c-0.2,0.3-0.6,0.5-1,0.3l-3.8-1.9
			c-0.3-0.2-0.4-0.5-0.4-0.8c0.7-2.8,9.1-12.3,8-12.8c-1.4-0.6-14.2-2.8-18.2-4.1c-2.7-0.9-4.2-5.1-2.8-7.6
			C1135.6,108.4,1138.6,106.9,1145.3,109.4z"/>
		<path class="st21" d="M1147.4,135.3c0,0,0.1,1.2,0.9,1.9c0.8,0.8,2.6,0.8,2.6,0.8s0.9,0.3,0.9,0.5c0,0.5-0.7,0.8-0.7,0.8
			s3.4,5.9,3.5,7c0.1,1.3-0.7,2.5-1.3,2.4c-1.2-0.1-4.7-4.4-5.3-5c-0.6-0.6-5.2-4-5.1-5.6c0.1-1.2,3.2-1.6,3.4-2.4
			S1147.4,135.3,1147.4,135.3z"/>
	</g>
	<g>
		<path class="st35" d="M1177.7,173c-4.5-0.9-8.4-3.5-10.9-7.4c-2.5-3.8-3.4-8.4-2.5-12.9c0.9-4.5,3.5-8.4,7.4-10.9
			c3.8-2.5,8.4-3.4,12.9-2.5c9.3,1.9,15.3,11,13.4,20.3c-1.9,9.2-10.8,15.2-20,13.5C1177.9,173,1177.8,173,1177.7,173z
			 M1173.6,144.7c-3,2-5.1,5.1-5.9,8.7c-0.7,3.6,0,7.2,2,10.3c2,3,5.1,5.1,8.7,5.9c7.4,1.5,14.6-3.3,16.1-10.7
			c1.5-7.4-3.3-14.6-10.7-16.1c-0.1,0-0.2,0-0.3,0C1180.1,142,1176.6,142.7,1173.6,144.7z"/>
		<path class="st35" d="M1113.6,159.9c-9.3-1.9-15.3-11-13.4-20.3c0.9-4.5,3.5-8.4,7.4-10.9c3.8-2.5,8.4-3.4,12.9-2.5
			c4.5,0.9,8.4,3.5,10.9,7.4c2.5,3.8,3.4,8.4,2.5,12.9c-0.9,4.5-3.5,8.4-7.4,10.9c-3.7,2.5-8.2,3.4-12.6,2.6
			C1113.8,159.9,1113.7,159.9,1113.6,159.9z M1109.4,131.6c-3,2-5.1,5.1-5.9,8.7c-1.5,7.4,3.3,14.6,10.7,16.1c3.6,0.7,7.2,0,10.3-2
			c3-2,5.1-5.1,5.9-8.7c0.7-3.6,0-7.2-2-10.3c-2-3-5.1-5.1-8.7-5.9c-0.1,0-0.2,0-0.3,0C1116,128.9,1112.4,129.7,1109.4,131.6z"/>
		<circle class="st36" cx="1144.8" cy="149.5" r="5.7"/>
		<path class="st26" d="M1143.7,152.7c-0.8-0.1-1.4-0.8-1.4-1.6l-2.4-30.2c-0.1-1,0.6-1.8,1.6-1.9c1-0.1,1.8,0.6,1.9,1.6l2.4,30.2
			c0.1,1-0.6,1.8-1.6,1.9C1144,152.8,1143.9,152.7,1143.7,152.7z"/>
		<path class="st26" d="M1149,152.3C1149,152.3,1148.9,152.3,1149,152.3l-33-7.5c-0.7-0.2-1.2-0.7-1.3-1.4c-0.1-0.7,0.2-1.4,0.8-1.8
			l26.3-16.7c0.4-0.2,0.8-0.3,1.3-0.2l32,6.5c0.9,0.2,1.6,1.1,1.4,2.1l-0.6,3c-0.1,0.5-0.4,0.9-0.8,1.2l-24.7,14.7
			C1149.8,152.3,1149.4,152.4,1149,152.3z M1120.8,142.4l28.2,6.4l23.5-13.9l0.1-0.5l-29.6-6L1120.8,142.4z"/>
		<path class="st36" d="M1136.2,120.4l12.9,2.6c0.9,0.2,1.9-0.4,2.1-1.4l0.1-0.5c0.2-0.9-0.4-1.9-1.4-2.1l-12.9-2.6
			c-0.9-0.2-1.9,0.4-2.1,1.4l-0.1,0.5C1134.6,119.3,1135.2,120.2,1136.2,120.4z"/>
		<path class="st26" d="M1180.8,158.1c-0.3,0-0.5-0.2-0.7-0.3l-4.7-3.6c-0.4-0.3-0.6-0.7-0.7-1.2l-0.8-34c0-0.5,0.1-1,0.5-1.4
			c0.3-0.4,0.8-0.6,1.3-0.5c2.1,0.1,4.1-0.4,4.4-0.8c0,0,0-0.1-0.2-0.4c-1.3-1.7-6.9-3-10.6-3.4c-1-0.1-1.7-1-1.6-1.9
			c0.1-1,1-1.7,1.9-1.6c1.7,0.2,10.3,1.3,13,4.8c0.7,1,1,2,0.8,3.1c-0.5,2.7-3.7,3.4-5.9,3.6l0.6,31.4l4.1,3.1
			c0.8,0.6,0.9,1.7,0.3,2.5C1182.1,157.9,1181.4,158.2,1180.8,158.1z"/>
	</g>
	<g>
		<path class="st34" d="M1145.4,139c0,0-2.8,2.8-3.4,3.4s-0.6,2.1,0,2.8c1.3,1.5,2.5,1,3.8-0.2c1.1-0.9,3.4-2.4,3.4-3.8
			C1149.2,139.9,1147.7,137.3,1145.4,139z"/>
		<path class="st31" d="M1147.9,112c0,0,13.5,9.1,13.4,15c-0.1,4-11.9,15.6-14.6,18.1c-0.3,0.3-0.8,0.2-1-0.1l-2.8-3.2
			c-0.2-0.2-0.2-0.6-0.1-0.9c1.6-2.4,10-13.2,9.2-14.1c-1-1-12.5-7-15.8-9.7c-2.2-1.8-1.2-6.1,0.9-7.9S1142.6,107.3,1147.9,112z"/>
		<path class="st21" d="M1142.4,141.9c0,0,0,1.2,0.7,2c0.7,0.9,2.5,1.1,2.5,1.1s0.9,0.4,0.9,0.6c0,0.5-0.8,0.7-0.8,0.7
			s2.8,6.3,2.7,7.3c0,1.3-1,2.4-1.6,2.3c-1.1-0.2-4.2-4.9-4.7-5.5c-0.5-0.7-4.7-4.5-4.4-6.1c0.2-1.2,3.3-1.3,3.6-2
			S1142.4,141.9,1142.4,141.9z"/>
	</g>
	<path class="st31" d="M1137.1,104.8c0,0-7,9.5-0.9,12.5c6.2,3.1,12.7-4.8,10.6-9.4C1144.6,103.4,1140.2,101.5,1137.1,104.8z"/>
	<path class="st36" d="M1157.9,88.5c-1.6-1.6-6.1-1.7-10.4,3c-7.4,8.3-11.5,12.5-11.4,14.9c0.1,1.5,1.3,3.6,4.3,4.4
		c3.4,1,6.3,1.4,8.1-0.7c1.7-2.1,3.3-6.4,5.9-9.2C1156.7,98.3,1160.6,91.1,1157.9,88.5z"/>
	<path class="st34" d="M1162.2,89.8L1162.2,89.8c2.4,0.3,4.6-1.5,4.9-3.9l0.3-3.1c0.3-2.4-1.5-4.6-3.9-4.9l0,0
		c-2.4-0.3-4.6,1.5-4.9,3.9l-0.3,3.1C1158,87.4,1159.8,89.6,1162.2,89.8z"/>
	<path class="st37" d="M1155.9,85.5l0.7,0.1c0.8,0.1,1.5-0.4,1.7-1.2l0.7-4.4l-3.5-0.5l-0.7,4.4
		C1154.6,84.6,1155.1,85.3,1155.9,85.5z"/>
	<path class="st37" d="M1163.7,82.8l1.3,0.2c1.6,0.2,3.1-0.9,3.3-2.4l0.4-2.3l-7.1-1.1l-0.4,2.3C1161,81.1,1162.1,82.6,1163.7,82.8z
		"/>
	<path class="st37" d="M1159.4,84l0.7,0.1c0.8,0.1,1.5-0.4,1.7-1.2l0.7-4.4l-3.5-0.5l-0.7,4.4C1158,83.1,1158.6,83.8,1159.4,84z"/>
	<path class="st34" d="M1168.7,107.7c0,0,3.6-0.2,5-0.1s4.4,1.7,5,2.3c0.5,0.6-0.2,1.1-1.4,1.1s-5.8-1.6-6.6-1.2
		c-0.8,0.4-0.8,0.9-3.1,0.2C1165.3,109.4,1165.4,107,1168.7,107.7z"/>
	<path class="st36" d="M1162.6,110.1c-3.5-0.8-9.2-2.6-10.2-3.6c-1.2-1.2-0.3-12.8,0.1-14.7c0.2-0.9,1-4.3,3.5-4.2
		c2,0.1,3.3,2.2,3,4.6c-0.2,1.6-2.3,9.9-1.5,10.8c0.7,0.8,7.9,2.1,11.4,4c0.6,0.3,0.5,3-0.1,3.6
		C1168.3,111.1,1164.3,110.5,1162.6,110.1z"/>
	<path class="st34" d="M1167.4,82.4c0,0,0.1,1.5,0.4,2.3c0.1,0.5,0.4,0.9,0.4,1.2c0.1,0.3-0.4,0.8-1.2,0.8c-0.5,0-0.5-0.3-0.4-0.7
		L1167.4,82.4z"/>
	<path class="st37" d="M1149.7,85l6.2-3l-0.3-0.7c-0.8-1.6-2.7-2.3-4.3-1.5l-6.2,3l0.3,0.7C1146.2,85.1,1148.1,85.7,1149.7,85z"/>
	<path class="st26" d="M1154.4,82.2l14.7-2c0.4-0.1,0.6-0.4,0.6-0.8v0c-0.6-4.4-4.6-7.4-9-6.8l-0.1,0c-4.4,0.6-7.4,4.6-6.8,9v0
		C1153.6,82,1154,82.2,1154.4,82.2z"/>
</g>
<g>
	<g>
		<g>
			<rect x="903.9" y="180.4" class="st38" width="34.9" height="7"/>
			<path class="st25" d="M938,181.5h-34.7c-0.6,0-1.1-0.5-1.1-1.1l0,0c0-0.6,0.5-1.1,1.1-1.1H938c0.6,0,1.1,0.5,1.1,1.1l0,0
				C939.1,181,938.6,181.5,938,181.5z"/>
			<path class="st25" d="M938,188.5h-34.7c-0.6,0-1.1-0.5-1.1-1.1l0,0c0-0.6,0.5-1.1,1.1-1.1H938c0.6,0,1.1,0.5,1.1,1.1l0,0
				C939.1,188,938.6,188.5,938,188.5z"/>
			<path class="st25" d="M937.9,188.5L937.9,188.5v-9.2l0,0c1.3,0,2.4,1.1,2.4,2.4v4.4C940.3,187.4,939.2,188.5,937.9,188.5z"/>
		</g>
		<g>
			<rect x="906.6" y="189.8" class="st38" width="34.9" height="7"/>
			<path class="st39" d="M940.7,190.9H906c-0.6,0-1.1-0.5-1.1-1.1l0,0c0-0.6,0.5-1.1,1.1-1.1h34.7c0.6,0,1.1,0.5,1.1,1.1l0,0
				C941.8,190.4,941.4,190.9,940.7,190.9z"/>
			<path class="st39" d="M940.7,197.9H906c-0.6,0-1.1-0.5-1.1-1.1l0,0c0-0.6,0.5-1.1,1.1-1.1h34.7c0.6,0,1.1,0.5,1.1,1.1l0,0
				C941.8,197.4,941.4,197.9,940.7,197.9z"/>
			<path class="st39" d="M940.6,197.9L940.6,197.9v-9.2l0,0c1.3,0,2.4,1.1,2.4,2.4v4.4C943,196.8,942,197.9,940.6,197.9z"/>
		</g>
		<g>
			<path class="st37" d="M757.3,151.9l2.5,5.7l0,0c-2.2,0.9-6.2-0.4-8.2-3.7l-3.3-5.5l0,0C751.8,147,755.8,148.5,757.3,151.9z"/>
			<path class="st34" d="M772.6,186.8c1.1-0.5,20.3-4.1,29.2-3c10,1.2,31.1,12.8,31,14.3c-0.1,1.5,1.4,3.8-1.1,3.6
				c-2.5-0.2-26.6-6.4-29.1-6.8c-2.5-0.4-26.9,9.7-33.7,2.8C765.9,194.5,766.4,189.5,772.6,186.8z"/>
			<path class="st15" d="M774.2,191.5c1.2-0.3,24.5,0.1,30,0.7c6.1,0.7,29.8,17.8,29.5,19.3c-0.3,1.5,0.9,4-1.6,3.5
				s-24.2-9.6-26.7-10.4c-2.5-0.8-29.6,7.1-35.5-0.9C767.3,200.1,767.6,193.4,774.2,191.5z"/>
			<path class="st39" d="M764.5,186.6c0,0-3.1,13.7,4.7,19.5c7.8,5.8,23.7,6.8,24.9,3c1.5-4.6-7.5-10.2-2.8-15.8
				c2.8-3.4,8.4-12.1,7.4-13.6c-2.6-4-20.1,3-21.9,1.4C774.7,179.2,765,182.9,764.5,186.6z"/>
			<path class="st34" d="M767.5,163.1c2.6-1.8,6.8,2.8,4.4,6.4c-2.3,3.7-20.5,25.6-22.1,26.5c-1.6,0.8-6.9,0.4-9,0.2
				c-2.1-0.2,2-2.7,4.1-3.3c2-0.6,3.3-0.9,5.9-3.9c2.6-3,6.2-11.4,7.9-12.8C760.4,174.7,762.7,166.6,767.5,163.1z"/>
			<path class="st15" d="M756.3,162.3c0,0,2.2-1.5,2.4-2.4c0.2-0.9-0.7-3,0-3.9c0.6-0.9,7.5-2.3,7.1-0.5c-0.6,2.8-0.4,3.8,0.2,3.7
				c0.6-0.1,3.6-0.6,4.8,1.3c1.1,1.9-0.8,9.3-0.8,9.3S757.3,166.7,756.3,162.3z"/>
			<path class="st26" d="M754.9,166.8c0,0,2.2,13.8,9.6,19.8c0.8,0.7,2.7,0.6,3.9,0.6c6.7,0.1,9.4-3.7,9.4-5.5c0-1.4,0.5-9.8-1-14.5
				c-0.8-2.3-6.3-7.9-8-8.1c-0.7-0.1-1.2-0.1-1.8,0c-0.6,0.1,3.2,2.9,0.8,3.7c-2.8,1-8.9-2.6-11-1.1
				C754,163.4,754.9,165.1,754.9,166.8z"/>
			<path class="st15" d="M755.5,163.7c2.1-2.4,6.8,5.1,5.3,9.2c-1.5,4.1-14.5,29.4-15.9,30.6c-1.4,1.2-9.2,0.4-11.4,0.6
				s3.7-3.4,6.7-3.5c2.1-0.1,2.2-0.7,4.1-4.2s3.6-12.5,5-14.2C750.5,180.4,751.5,168.2,755.5,163.7z"/>
			<path class="st15" d="M763.2,157.8L763.2,157.8c-4.1,1-8.2-1.6-9.2-5.6l-0.3-1.2c-1-4.1,1.6-8.2,5.6-9.2l0,0
				c4.1-1,8.2,1.6,9.2,5.6l0.3,1.2C769.8,152.7,767.2,156.9,763.2,157.8z"/>
			<path class="st37" d="M762.2,148l-8.5,3.4l0,0c-1.9-4.7,0.4-10.1,5.1-12l8.5-3.4l0,0C769.2,140.7,766.9,146,762.2,148z"/>
			<path class="st37" d="M753.7,150.1l-0.5-0.6l0,0c2.4-2.2,6.3-2,8.5,0.4l0.5,0.6l0,0C759.7,152.8,755.9,152.6,753.7,150.1z"/>
			<path class="st37" d="M757.4,147.3l-4.3,3.1l0,0c-2.9-4.2-1.9-9.9,2.2-12.8l4.3-3.1l0,0C762.6,138.7,761.6,144.4,757.4,147.3z"/>
			<path class="st37" d="M757.6,152.8l0.9,5.2l0,0c-0.9,0.1-5.4-1.3-6.2-4.3l-1.2-5l0,0C754,148,756.9,149.9,757.6,152.8z"/>
			<path class="st15" d="M759.5,154L759.5,154c-1.6,0.8-3.6,0.1-4.4-1.6l-0.1-0.3c-0.4-0.8-0.1-1.8,0.8-2.2l0,0
				c0.8-0.4,1.8-0.1,2.2,0.8L759.5,154z"/>
			<path class="st34" d="M827.8,194.7c2.6,1.2,6.9-0.1,8-0.7c3.1-1.7,4.2-4,5.9-4.1c2.3-0.1-4.8,11.3-9.2,11.7
				c-4.4,0.4-8.2-3.4-6.9-4.6C826.9,195.8,827.8,194.7,827.8,194.7z"/>
			<path class="st25" d="M831.7,201.6c0,0,3.4,0.2,6.8-5.1c2.9-4.4,1.7-6.3,0.5-5c0,0,2.3-3.6,3.7-2.9c1.5,0.7,0,6.3-1.1,8.3
				c-1,2-3.3,7.3-6.5,6.8C831.9,203.2,830.9,201.7,831.7,201.6z"/>
			<path class="st15" d="M827.3,206.1c0,0,6.9,4.6,12.2,1.7c0,0,1-0.6,1.5-0.8c0.5-0.2,1.8,0.3,1.3,1.5c-0.4,1.3-6.3,6.3-8.7,6.7
				c-2.3,0.5-4.6-0.7-5.7-1.7C827,212.6,825.7,208.5,827.3,206.1z"/>
			<path class="st25" d="M828.5,213.6c0,0,3.5,1.4,8.8-1.9s3.8-4.6,2.2-4c0,0,3.6-2.2,4.6-1c1,1.3-2.8,5.6-4.6,7
				c-1.8,1.4-6.6,5.3-9.3,3.4C828.3,215.9,827.8,213.3,828.5,213.6z"/>
		</g>
		<g>
			<path class="st17" d="M889.5,139.8c0,0,5,1.3,7.3,1.7c2.4,0.3-0.1,3.3-4.1,3.1c-4-0.2-6.3-2.2-6.1-4.4
				C886.8,138.1,889.5,139.8,889.5,139.8z"/>
			<g>
				<path class="st40" d="M883.7,126.3c0,0,7.3,13,6.8,14.4c-0.5,1.4-1.5,4.3-3.9,2.4s-9.4-12.9-9.4-14.8s-0.4-4.2,1.5-4.9
					C880.6,122.7,883.7,126.3,883.7,126.3z"/>
				<g>
					
						<rect x="860.9" y="159.6" transform="matrix(0.1118 -0.9937 0.9937 0.1118 608.5439 1003.4835)" class="st15" width="9.5" height="3.4"/>
					<path class="st34" d="M859.5,174.3L859.5,174.3c-0.3,0-0.5-0.4-0.5-0.9l2.1-17.3c0.1-0.4,0.4-0.7,0.7-0.7l5.1,0.6
						c0.3,0,0.5,0.4,0.5,0.9l-2.2,10.7C864.3,172.1,862.6,174.6,859.5,174.3z"/>
					
						<rect x="849.5" y="164" transform="matrix(0.1118 -0.9937 0.9937 0.1118 599.8391 1000.4993)" class="st15" width="20.2" height="1.4"/>
					
						<rect x="857.5" y="161.4" transform="matrix(0.1118 -0.9937 0.9937 0.1118 606.2079 1002.4106)" class="st15" width="12.7" height="1.3"/>
				</g>
				<path class="st26" d="M875.7,169.4c0,0,4.5,3,5.6,5c1,2,5.3-4.1,4-6.1c-1.2-2-1.2-3.7-7.6-4C871.3,164,875.7,169.4,875.7,169.4z
					"/>
				<path class="st40" d="M874.3,107.1c3.6-0.9,6.8,6.4,8.2,11.3s2.1,12.9-0.6,13.1c-2.7,0.2-7.2-8.1-8.7-11.6
					C871.8,116.4,867.9,108.8,874.3,107.1z"/>
				<path class="st41" d="M878.2,103.3L878.2,103.3l-1.1-6.8c-0.2-0.9-1-1.6-1.9-1.4l0,0l1.1,6.8
					C876.4,102.8,877.3,103.4,878.2,103.3z"/>
				<path class="st42" d="M867.4,136.1c5.9-4.2,9.2-2.6,11-1.1c1.8,1.5,20.7,10.8,18.4,18.9c-2.3,8.2-37,9.8-37.4,8.1
					c-0.5-1.7-2.2-4.1,0-4.8c2.2-0.7,21.1-4.4,21.2-6.4c0-0.9-5.8-2.6-15.4-1.7C860.5,149.7,864.2,138.3,867.4,136.1z"/>
				<path class="st42" d="M857,134.7c0,0-14.9,6.9-14.9,16.5c0,7.6,33.5,20.5,34.6,18.7c1.1-1.7,2.2-7.1,1.5-9
					c-0.5-1.2-19.8-7.8-19.9-9.4c-0.1-1.1,1.8-1.8,11.8-2.8C875,148.3,872.5,128,857,134.7z"/>
				<g>
					<g>
						<path id="SVGID_6_" class="st43" d="M878.1,135c1-3.1-1.8-5,0.2-11.9c0.9-3,1.9-5.1,1.1-11c-0.4-2.7-2.3-6.4-6.9-7.6
							c-5.1-1.3-15.1,0.2-16.5,4.8c-1.6,5.3,0.1,21,2,25.7c1.5,3.6,3,4.4,9.5,4.1C873.2,139,877.6,136.6,878.1,135z"/>
					</g>
					<g>
						<defs>
							<path id="SVGID_19_" d="M878.6,134.6c0.9-3.1-2-4.9-0.3-11.9c0.7-3,1.7-5.2,0.7-11c-0.5-2.7-2.6-6.3-7.2-7.3
								c-5.1-1.1-15.1,0.8-16.3,5.5c-1.4,5.4,0.9,21,3,25.6c1.6,3.5,3.2,4.3,9.7,3.8C873.8,138.7,878.1,136.2,878.6,134.6z"/>
						</defs>
						<clipPath id="SVGID_20_">
							<use xlink:href="#SVGID_19_"  style="overflow:visible;"/>
						</clipPath>
						
							<rect x="843.7" y="96.9" transform="matrix(0.9992 -3.996075e-02 3.996075e-02 0.9992 -4.185 34.746)" class="st44" width="46.7" height="50.3"/>
					</g>
					<g>
						<defs>
							<path id="SVGID_21_" d="M878.1,135c1-3.1-1.8-5,0.2-11.9c0.9-3,1.9-5.1,1.1-11c-0.4-2.7-2.3-6.4-6.9-7.6
								c-5.1-1.3-15.1,0.2-16.5,4.8c-1.6,5.3,0.1,21,2,25.7c1.5,3.6,3,4.4,9.5,4.1C873.2,139,877.6,136.6,878.1,135z"/>
						</defs>
						<clipPath id="SVGID_22_">
							<use xlink:href="#SVGID_21_"  style="overflow:visible;"/>
						</clipPath>
						<path class="st45" d="M879.2,113.7l5.6-0.2c0.7,0,1.3-0.6,1.2-1.4l-0.2-5.1c0-0.7-0.6-1.3-1.4-1.2l-5.6,0.2
							c-0.7,0-1.3,0.6-1.2,1.4l0.2,5.1C877.9,113.1,878.5,113.7,879.2,113.7z"/>
					</g>
					<g>
						<defs>
							<path id="SVGID_23_" d="M878.1,135c1-3.1-1.8-5,0.2-11.9c0.9-3,1.9-5.1,1.1-11c-0.4-2.7-2.3-6.4-6.9-7.6
								c-5.1-1.3-15.1,0.2-16.5,4.8c-1.6,5.3,0.1,21,2,25.7c1.5,3.6,3,4.4,9.5,4.1C873.2,139,877.6,136.6,878.1,135z"/>
						</defs>
						<clipPath id="SVGID_24_">
							<use xlink:href="#SVGID_23_"  style="overflow:visible;"/>
						</clipPath>
						<path class="st46" d="M849.7,114.8l5.6-0.2c0.7,0,1.3-0.6,1.2-1.4l-0.2-5.1c0-0.7-0.6-1.3-1.4-1.2l-5.6,0.2
							c-0.7,0-1.3,0.6-1.2,1.4l0.2,5.1C848.4,114.3,849,114.8,849.7,114.8z"/>
					</g>
					<g>
						<defs>
							<path id="SVGID_25_" d="M878.1,135c1-3.1-1.8-5,0.2-11.9c0.9-3,1.9-5.1,1.1-11c-0.4-2.7-2.3-6.4-6.9-7.6
								c-5.1-1.3-15.1,0.2-16.5,4.8c-1.6,5.3,0.1,21,2,25.7c1.5,3.6,3,4.4,9.5,4.1C873.2,139,877.6,136.6,878.1,135z"/>
						</defs>
						<clipPath id="SVGID_26_">
							<use xlink:href="#SVGID_25_"  style="overflow:visible;"/>
						</clipPath>
						<path class="st47" d="M879.8,127.9l5.6-0.2c0.7,0,1.3-0.6,1.2-1.4l-0.2-5.1c0-0.7-0.6-1.3-1.4-1.2l-5.6,0.2
							c-0.7,0-1.3,0.6-1.2,1.4l0.2,5.1C878.5,127.4,879.1,128,879.8,127.9z"/>
					</g>
					<g>
						<defs>
							<path id="SVGID_27_" d="M878.1,135c1-3.1-1.8-5,0.2-11.9c0.9-3,1.9-5.1,1.1-11c-0.4-2.7-2.3-6.4-6.9-7.6
								c-5.1-1.3-15.1,0.2-16.5,4.8c-1.6,5.3,0.1,21,2,25.7c1.5,3.6,3,4.4,9.5,4.1C873.2,139,877.6,136.6,878.1,135z"/>
						</defs>
						<clipPath id="SVGID_28_">
							<use xlink:href="#SVGID_27_"  style="overflow:visible;"/>
						</clipPath>
						<path class="st48" d="M850.3,129.1l5.6-0.2c0.7,0,1.3-0.6,1.2-1.4l-0.2-5.1c0-0.7-0.6-1.3-1.4-1.2l-5.6,0.2
							c-0.7,0-1.3,0.6-1.2,1.4l0.2,5.1C849,128.6,849.6,129.2,850.3,129.1z"/>
					</g>
					<g>
						<defs>
							<path id="SVGID_29_" d="M878.1,135c1-3.1-1.8-5,0.2-11.9c0.9-3,1.9-5.1,1.1-11c-0.4-2.7-2.3-6.4-6.9-7.6
								c-5.1-1.3-15.1,0.2-16.5,4.8c-1.6,5.3,0.1,21,2,25.7c1.5,3.6,3,4.4,9.5,4.1C873.2,139,877.6,136.6,878.1,135z"/>
						</defs>
						<clipPath id="SVGID_30_">
							<use xlink:href="#SVGID_29_"  style="overflow:visible;"/>
						</clipPath>
						<path class="st49" d="M880.4,141.9l5.6-0.2c0.7,0,1.3-0.6,1.2-1.4l-0.2-5.1c0-0.7-0.6-1.3-1.4-1.2l-5.6,0.2
							c-0.7,0-1.3,0.6-1.2,1.4l0.2,5.1C879,141.4,879.6,141.9,880.4,141.9z"/>
					</g>
					<g>
						<defs>
							<path id="SVGID_31_" d="M878.1,135c1-3.1-1.8-5,0.2-11.9c0.9-3,1.9-5.1,1.1-11c-0.4-2.7-2.3-6.4-6.9-7.6
								c-5.1-1.3-15.1,0.2-16.5,4.8c-1.6,5.3,0.1,21,2,25.7c1.5,3.6,3,4.4,9.5,4.1C873.2,139,877.6,136.6,878.1,135z"/>
						</defs>
						<clipPath id="SVGID_32_">
							<use xlink:href="#SVGID_31_"  style="overflow:visible;"/>
						</clipPath>
						<path class="st50" d="M850.9,143.1l5.6-0.2c0.7,0,1.3-0.6,1.2-1.4l-0.2-5.1c0-0.7-0.6-1.3-1.4-1.2l-5.6,0.2
							c-0.7,0-1.3,0.6-1.2,1.4l0.2,5.1C849.5,142.5,850.2,143.1,850.9,143.1z"/>
					</g>
					<g>
						<defs>
							<path id="SVGID_33_" d="M878.1,135c1-3.1-1.8-5,0.2-11.9c0.9-3,1.9-5.1,1.1-11c-0.4-2.7-2.3-6.4-6.9-7.6
								c-5.1-1.3-15.1,0.2-16.5,4.8c-1.6,5.3,0.1,21,2,25.7c1.5,3.6,3,4.4,9.5,4.1C873.2,139,877.6,136.6,878.1,135z"/>
						</defs>
						<clipPath id="SVGID_34_">
							<use xlink:href="#SVGID_33_"  style="overflow:visible;"/>
						</clipPath>
						<path class="st51" d="M872.2,121.1l5.6-0.2c0.7,0,1.3-0.6,1.2-1.4l-0.2-5.1c0-0.7-0.6-1.3-1.4-1.2l-5.6,0.2
							c-0.7,0-1.3,0.6-1.2,1.4l0.2,5.1C870.8,120.5,871.4,121.1,872.2,121.1z"/>
					</g>
					<g>
						<defs>
							<path id="SVGID_35_" d="M878.1,135c1-3.1-1.8-5,0.2-11.9c0.9-3,1.9-5.1,1.1-11c-0.4-2.7-2.3-6.4-6.9-7.6
								c-5.1-1.3-15.1,0.2-16.5,4.8c-1.6,5.3,0.1,21,2,25.7c1.5,3.6,3,4.4,9.5,4.1C873.2,139,877.6,136.6,878.1,135z"/>
						</defs>
						<clipPath id="SVGID_36_">
							<use xlink:href="#SVGID_35_"  style="overflow:visible;"/>
						</clipPath>
						<path class="st52" d="M871.6,106.9l5.6-0.2c0.7,0,1.3-0.6,1.2-1.4l-0.2-5.1c0-0.7-0.6-1.3-1.4-1.2l-5.6,0.2
							c-0.7,0-1.3,0.6-1.2,1.4l0.2,5.1C870.3,106.4,870.9,106.9,871.6,106.9z"/>
					</g>
					<g>
						<defs>
							<path id="SVGID_37_" d="M878.1,135c1-3.1-1.8-5,0.2-11.9c0.9-3,1.9-5.1,1.1-11c-0.4-2.7-2.3-6.4-6.9-7.6
								c-5.1-1.3-15.1,0.2-16.5,4.8c-1.6,5.3,0.1,21,2,25.7c1.5,3.6,3,4.4,9.5,4.1C873.2,139,877.6,136.6,878.1,135z"/>
						</defs>
						<clipPath id="SVGID_38_">
							<use xlink:href="#SVGID_37_"  style="overflow:visible;"/>
						</clipPath>
						<path class="st53" d="M864.4,114.2l5.6-0.2c0.7,0,1.3-0.6,1.2-1.4l-0.2-5.1c0-0.7-0.6-1.3-1.4-1.2l-5.6,0.2
							c-0.7,0-1.3,0.6-1.2,1.4l0.2,5.1C863.1,113.7,863.7,114.3,864.4,114.2z"/>
					</g>
					<g>
						<defs>
							<path id="SVGID_39_" d="M878.1,135c1-3.1-1.8-5,0.2-11.9c0.9-3,1.9-5.1,1.1-11c-0.4-2.7-2.3-6.4-6.9-7.6
								c-5.1-1.3-15.1,0.2-16.5,4.8c-1.6,5.3,0.1,21,2,25.7c1.5,3.6,3,4.4,9.5,4.1C873.2,139,877.6,136.6,878.1,135z"/>
						</defs>
						<clipPath id="SVGID_40_">
							<use xlink:href="#SVGID_39_"  style="overflow:visible;"/>
						</clipPath>
						<path class="st54" d="M857.3,121.5l5.6-0.2c0.7,0,1.3-0.6,1.2-1.4l-0.2-5.1c0-0.7-0.6-1.3-1.4-1.2l-5.6,0.2
							c-0.7,0-1.3,0.6-1.2,1.4l0.2,5.1C856,121,856.6,121.6,857.3,121.5z"/>
					</g>
					<g>
						<defs>
							<path id="SVGID_41_" d="M878.1,135c1-3.1-1.8-5,0.2-11.9c0.9-3,1.9-5.1,1.1-11c-0.4-2.7-2.3-6.4-6.9-7.6
								c-5.1-1.3-15.1,0.2-16.5,4.8c-1.6,5.3,0.1,21,2,25.7c1.5,3.6,3,4.4,9.5,4.1C873.2,139,877.6,136.6,878.1,135z"/>
						</defs>
						<clipPath id="SVGID_42_">
							<use xlink:href="#SVGID_41_"  style="overflow:visible;"/>
						</clipPath>
						<path class="st55" d="M856.7,107.5l5.6-0.2c0.7,0,1.3-0.6,1.2-1.4l-0.2-5.1c0-0.7-0.6-1.3-1.4-1.2l-5.6,0.2
							c-0.7,0-1.3,0.6-1.2,1.4l0.2,5.1C855.4,107,856,107.5,856.7,107.5z"/>
					</g>
					<g>
						<defs>
							<path id="SVGID_43_" d="M878.1,135c1-3.1-1.8-5,0.2-11.9c0.9-3,1.9-5.1,1.1-11c-0.4-2.7-2.3-6.4-6.9-7.6
								c-5.1-1.3-15.1,0.2-16.5,4.8c-1.6,5.3,0.1,21,2,25.7c1.5,3.6,3,4.4,9.5,4.1C873.2,139,877.6,136.6,878.1,135z"/>
						</defs>
						<clipPath id="SVGID_44_">
							<use xlink:href="#SVGID_43_"  style="overflow:visible;"/>
						</clipPath>
						<path class="st56" d="M872.7,135.3l5.6-0.2c0.7,0,1.3-0.6,1.2-1.4l-0.2-5.1c0-0.7-0.6-1.3-1.4-1.2l-5.6,0.2
							c-0.7,0-1.3,0.6-1.2,1.4l0.2,5.1C871.4,134.7,872,135.3,872.7,135.3z"/>
					</g>
					<g>
						<defs>
							<path id="SVGID_45_" d="M878.1,135c1-3.1-1.8-5,0.2-11.9c0.9-3,1.9-5.1,1.1-11c-0.4-2.7-2.3-6.4-6.9-7.6
								c-5.1-1.3-15.1,0.2-16.5,4.8c-1.6,5.3,0.1,21,2,25.7c1.5,3.6,3,4.4,9.5,4.1C873.2,139,877.6,136.6,878.1,135z"/>
						</defs>
						<clipPath id="SVGID_46_">
							<use xlink:href="#SVGID_45_"  style="overflow:visible;"/>
						</clipPath>
						<path class="st57" d="M865.1,128.4l5.6-0.2c0.7,0,1.3-0.6,1.2-1.4l-0.2-5.1c0-0.7-0.6-1.3-1.4-1.2l-5.6,0.2
							c-0.7,0-1.3,0.6-1.2,1.4l0.2,5.1C863.7,127.8,864.3,128.4,865.1,128.4z"/>
					</g>
					<g>
						<defs>
							<path id="SVGID_47_" d="M878.1,135c1-3.1-1.8-5,0.2-11.9c0.9-3,1.9-5.1,1.1-11c-0.4-2.7-2.3-6.4-6.9-7.6
								c-5.1-1.3-15.1,0.2-16.5,4.8c-1.6,5.3,0.1,21,2,25.7c1.5,3.6,3,4.4,9.5,4.1C873.2,139,877.6,136.6,878.1,135z"/>
						</defs>
						<clipPath id="SVGID_48_">
							<use xlink:href="#SVGID_47_"  style="overflow:visible;"/>
						</clipPath>
						<path class="st58" d="M865.5,142.5l5.6-0.2c0.7,0,1.3-0.6,1.2-1.4l-0.2-5.1c0-0.7-0.6-1.3-1.4-1.2l-5.6,0.2
							c-0.7,0-1.3,0.6-1.2,1.4l0.2,5.1C864.2,142,864.8,142.5,865.5,142.5z"/>
					</g>
					<g>
						<defs>
							<path id="SVGID_49_" d="M878.1,135c1-3.1-1.8-5,0.2-11.9c0.9-3,1.9-5.1,1.1-11c-0.4-2.7-2.3-6.4-6.9-7.6
								c-5.1-1.3-15.1,0.2-16.5,4.8c-1.6,5.3,0.1,21,2,25.7c1.5,3.6,3,4.4,9.5,4.1C873.2,139,877.6,136.6,878.1,135z"/>
						</defs>
						<clipPath id="SVGID_50_">
							<use xlink:href="#SVGID_49_"  style="overflow:visible;"/>
						</clipPath>
						<path class="st59" d="M857.9,135.9l5.6-0.2c0.7,0,1.3-0.6,1.2-1.4l-0.2-5.1c0-0.7-0.6-1.3-1.4-1.2l-5.6,0.2
							c-0.7,0-1.3,0.6-1.2,1.4l0.2,5.1C856.6,135.3,857.2,135.9,857.9,135.9z"/>
					</g>
				</g>
				<g>
					<g>
						
							<rect x="864.2" y="133.9" transform="matrix(0.658 -0.753 0.753 0.658 192.4336 707.0757)" class="st30" width="20.8" height="15.6"/>
						
							<rect x="862.9" y="132.7" transform="matrix(0.658 -0.753 0.753 0.658 192.8548 705.6718)" class="st60" width="20.8" height="15.6"/>
						<g>
							<path class="st27" d="M883.6,140.6l2.2,1.9c0.3,0.2,0.7,0.2,0.9-0.1l0,0c0.2-0.3,0.2-0.7-0.1-0.9l-2.2-1.9L883.6,140.6z"/>
							<path class="st27" d="M880.4,144.2l2.2,1.9c0.3,0.2,0.7,0.2,0.9-0.1l0,0c0.2-0.3,0.2-0.7-0.1-0.9l-2.2-1.9L880.4,144.2z"/>
							<path class="st27" d="M877.2,147.9l2.2,1.9c0.3,0.2,0.7,0.2,0.9-0.1l0,0c0.2-0.3,0.2-0.7-0.1-0.9l-2.2-1.9L877.2,147.9z"/>
							<path class="st27" d="M874.1,151.5l2.2,1.9c0.3,0.2,0.7,0.2,0.9-0.1l0,0c0.2-0.3,0.2-0.7-0.1-0.9l-2.2-1.9L874.1,151.5z"/>
						</g>
					</g>
				</g>
				<path class="st17" d="M864.3,137.4c0,0,4.8,5.2,6.5,5.1c1.7,0.2,4.7-0.5,4.9-1.4c0.2-1-4.5-5.7-6.2-6.3c-1.7-0.6-3.8-0.7-4.9-1
					c-1.1-0.4-2.6-1.9-2.6,0.4C862.1,136.5,864.3,137.4,864.3,137.4z"/>
				<path class="st40" d="M859.2,106.2c-2,0.2-14.3,9.8-15.4,19.3c-0.7,5.4,16.2,10.9,20.4,12.2c0.5,0.2,2.2-2.4,2.1-4.3
					c-0.1-1.2-12.6-7.8-13-9.6c-0.5-2.4,9.5-8.6,10.8-11.2C865.8,109.5,862.4,105.8,859.2,106.2z"/>
				<g>
					<path class="st41" d="M878.9,97.3L878.9,97.3l-2.7-4.6c-0.7-1.2-2.2-1.6-3.4-0.9l0,0l2.7,4.6C876.2,97.6,877.7,98,878.9,97.3z"
						/>
					<circle class="st41" cx="865.4" cy="87.4" r="2.8"/>
					<path class="st41" d="M877.1,101.6c0,0,0.3,3-2.3,5.6c-1.4,1.4-1-0.8-0.2-2.2c0.8-1.3,2-4.8,2-4.8L877.1,101.6z"/>
					<path class="st41" d="M869.2,106.7L869.2,106.7c4.4-0.2,7.9-4,7.7-8.4l-0.1-2.4c-0.2-4.4-4-7.9-8.4-7.7l0,0
						c-4.4,0.2-7.9,4-7.7,8.4l0.1,2.4C861,103.4,864.8,106.9,869.2,106.7z"/>
					<path class="st17" d="M869.8,108.6L869.8,108.6c3.8-0.1,6.9-3.3,6.9-7.2l-0.1-3.1c-0.2-3.8-3.4-6.4-7.1-6.2l0,0
						c-3.8,0.1-6.9,2.6-6.9,6.5l0.1,3.1C862.8,105.5,866,108.6,869.8,108.6z"/>
					<path class="st41" d="M865.4,99.2l-3.6-1.7l3.7-7.7l5.3,2.5l-2.9,6C867.6,99.2,866.4,99.6,865.4,99.2z"/>
					<path class="st17" d="M865,102.6L865,102.6l-1.9-4.5c-0.4-0.9-1.4-1.4-2.2-1.1l-0.2,0.1c-0.9,0.3-1.2,1.4-0.8,2.3l0.4,0.9
						C861.1,102.3,863.2,103.3,865,102.6z"/>
					<path class="st41" d="M866.8,90.7l0.5-0.2l-2.1-4.4c-0.7-1.5-2.5-2.1-4-1.4l-0.5,0.2l2.1,4.4C863.5,90.8,865.3,91.4,866.8,90.7
						z"/>
					<path class="st41" d="M866,89.8l0.2-0.2l-1-1.1c-1.1-1.2-2.8-1.2-4-0.2l-0.2,0.2l1,1.1C863,90.7,864.8,90.8,866,89.8z"/>
					<path class="st41" d="M861.7,102.8l-0.4-0.1l4.3-13.2l6.7,2.2l-2.3,6.9C868.9,102,865.2,103.9,861.7,102.8z"/>
					<path class="st41" d="M864.7,101.9c0,0,0.7,3.5,2,3.9c1.3,0.3,2.1-2,5.3-2.1c2.4-0.1,2.9,1.7,3.6,1.6c0.7-0.2-0.7,3.6-4.7,4
						s-7.8-2-8.1-6.4s1.9-2.7,1.9-2.7L864.7,101.9z"/>
				</g>
				<g>
					
						<rect x="876" y="166.6" transform="matrix(0.3181 -0.9481 0.9481 0.3181 441.0052 949.7383)" class="st15" width="9.5" height="3.4"/>
					<path class="st34" d="M880.8,182.6L880.8,182.6c0.3,0.1,0.7-0.2,0.8-0.5l5.4-16.5c0.1-0.4,0-0.8-0.3-0.9l-4.8-1.6
						c-0.3-0.1-0.7,0.2-0.8,0.5l-2.5,10.7C877.3,178.7,877.8,181.6,880.8,182.6z"/>
					
						<rect x="874.6" y="173.2" transform="matrix(0.3181 -0.9481 0.9481 0.3181 438.4331 957.3759)" class="st15" width="20.2" height="1.4"/>
					
						<rect x="875.6" y="169.1" transform="matrix(0.3181 -0.9481 0.9481 0.3181 440.5017 951.9331)" class="st15" width="12.7" height="1.3"/>
				</g>
			</g>
		</g>
		<g>
			<path class="st61" d="M841.3,170.6l-0.1-0.1c-0.2-0.5-4.7-12.8,4-21l0.2-0.2l0.2-0.1c0.2-0.1,4.2-2.1,7.6,0.4c4,3,4.1,9,0.5,18.4
				c-1.8,4.7-3.9,7.1-6.4,7.2c-0.1,0-0.1,0-0.2,0C843.6,175.3,841.5,171.1,841.3,170.6z M846.9,151.7c-2.9,2.9-4.3,6.7-4.2,11.3
				c0.1,3.4,1,6.1,1.1,6.5c0.5,1,1.9,3.1,3.2,3.1c0.6,0,2.1-0.6,4-5.4c3.1-8,3.3-13.1,0.5-15.2c-0.7-0.5-1.5-0.7-2.3-0.7
				C848.2,151.2,847.3,151.5,846.9,151.7z"/>
			<g>
				<path class="st39" d="M841,148.9l5.1,2l1.1-2.8c0.5-1.4-0.2-3-1.6-3.6l0,0c-1.4-0.5-3,0.2-3.6,1.6L841,148.9z"/>
				<path class="st61" d="M825.3,170.2l17.4,6.7c0.6,0.2,1.2-0.1,1.4-0.6l5.9-15.2c2.1-5.4-0.6-11.4-5.9-13.5l0,0
					c-5.4-2.1-11.4,0.6-13.5,5.9l-5.9,15.2C824.4,169.3,824.7,169.9,825.3,170.2z"/>
				<path class="st39" d="M828.9,168.3l8,3.1c2.5,1,5.3-0.3,6.2-2.8l1-2.7c1-2.5-0.3-5.3-2.8-6.2l-8-3.1c-2.5-1-5.3,0.3-6.2,2.8
					l-1,2.7C825.1,164.6,826.4,167.4,828.9,168.3z"/>
			</g>
		</g>
	</g>
</g>
<g>
	<g>
		<path class="st62" d="M691.8,243.4v-65.6c0,0,2.4-26.8-12.4-26.8c-11.4,0-11.2,12.4-11.2,19.5"/>
		<path class="st62" d="M692.1,253.5V188c0,0-2.4-26.8,12.4-26.8c11.4,0,11.2,12.4,11.2,19.5"/>
	</g>
	<g>
		<rect x="672.3" y="215.1" class="st25" width="40" height="27.2"/>
		<rect x="679.2" y="195.5" class="st25" width="26.1" height="25.9"/>
		<rect x="665.8" y="215.1" class="st26" width="52.4" height="11.9"/>
		<rect x="644.5" y="240.9" class="st26" width="95.6" height="22.8"/>
		<rect x="674.4" y="189.6" class="st26" width="35.6" height="11.9"/>
	</g>
	<circle class="st22" cx="668.2" cy="181.5" r="3.6"/>
	<circle class="st22" cx="668.2" cy="206.7" r="3.6"/>
	<circle class="st22" cx="715.7" cy="191.5" r="3.6"/>
	<path class="st63" d="M781.8,279.6H600.3c-3.7,0-6.6-3-6.6-6.6v-3.5c0-3.7,3-6.6,6.6-6.6h181.5c3.7,0,6.6,3,6.6,6.6v3.5
		C788.4,276.6,785.5,279.6,781.8,279.6z"/>
</g>
<g>
	<path class="st14" d="M152.4,81.7l32.7-32.6c0.8-0.8,2.2-0.8,3,0l32.7,32.6c0.8,0.8,0.8,2.2,0,3l-32.7,32.5c-0.8,0.8-2.2,0.8-3,0
		l-32.7-32.5C151.6,83.9,151.6,82.6,152.4,81.7z"/>
	<path class="st15" d="M169.2,79.8c1.1-1.1,3-1.1,4.1,0L184,90.5V67.8c0-1.4,1.1-2.6,2.5-2.6s2.7,1.2,2.7,2.6v22.6l10.6-10.6
		c1.1-1.1,3-1.1,4.1,0c1.2,1.1,1.2,2.9,0,4.1l-14.7,14.7v74.8c0,1.4-1.2,2.6-2.6,2.6c-1.4,0-2.6-1.2-2.6-2.6V98.6
		c0,0-0.1-0.1-0.1-0.1l-14.7-14.7C168.1,82.7,168.1,80.9,169.2,79.8z"/>
</g>
<g>
	
		<linearGradient id="SVGID_51_" gradientUnits="userSpaceOnUse" x1="-185.2711" y1="428.8461" x2="475.0557" y2="428.8461" gradientTransform="matrix(1 -1.025609e-03 -1.025609e-03 0.9334 -2.7435 -178.0768)">
		<stop  offset="0.2257" style="stop-color:#429952"/>
		<stop  offset="1" style="stop-color:#50AD87"/>
	</linearGradient>
	<path class="st64" d="M140.9,137.2c-150.7-1.4-289,71.6-329.5,167.6l660.3,1.8C422.6,209.7,291.6,138.7,140.9,137.2z"/>
</g>
<path class="st0" d="M664.2,276.4c-3.2-19.1-20-33.6-40.3-33.6c-7.3,0-14.2,1.8-20.2,5.2c-8.2-18.9-27.3-32.2-49.6-32.2
	c-23.5,0-43.4,14.7-50.9,35.3c-3.4-1.1-6.9-1.7-10.5-1.7c-16.5,0-30.2,11.5-33.4,26.7c-0.5,2.1-0.8,4.4-0.8,6.7c0,1.2,0,3.9,0.2,4.4
	c0.5,1.4,1.8,3,3.5,3h42H526h57.3h20.5h57c1.7,0,3.1-1.6,3.5-3.2C665.1,285.4,664.5,278.6,664.2,276.4z"/>
<path class="st0" d="M-103.9,266.3c3.1-18.5,19.3-32.5,39-32.5c7.1,0,13.7,1.8,19.5,5c8-18.3,26.4-31.2,48-31.2
	c22.7,0,41.9,14.2,49.2,34.1c3.2-1,6.6-1.6,10.2-1.6c15.9,0,29.2,11.1,32.3,25.8c0.4,2.1,0.7,4.3,0.7,6.5c0,1.2,0,3.8-0.1,4.2
	c-0.4,1.3-1.8,2.9-3.4,2.9H50.9H29.7h-55.4h-19.8h-55.1c-1.6,0-3-1.6-3.4-3.1C-104.8,274.9-104.2,268.3-103.9,266.3z"/>
<g>
	<g>
		<polygon class="st65" points="1546.5,226.8 1482.2,226.8 1482.2,162.4 1534.4,162.4 		"/>
		<polygon class="st23" points="1534.4,237.2 1470,237.2 1476.5,162.4 1534.4,162.4 		"/>
	</g>
	<g>
		<g>
			<path class="st22" d="M1517.7,217.7h-6.1c-4.6,0-8.4-3.9-8.4-8.6c0-4.7,3.8-8.6,8.4-8.6h6.1c4.6,0,8.4,3.9,8.4,8.6
				C1526.1,213.9,1522.4,217.7,1517.7,217.7z M1511.6,203.9c-2.8,0-5.1,2.3-5.1,5.2c0,2.9,2.3,5.2,5.1,5.2h6.1
				c2.8,0,5.1-2.3,5.1-5.2c0-2.9-2.3-5.2-5.1-5.2H1511.6z"/>
			<path class="st22" d="M1501.1,226.8L1501.1,226.8c-8.1,0-14.6-6.6-14.6-14.6v-14.9c0-1,0.8-1.7,1.7-1.7h25.8c1,0,1.7,0.8,1.7,1.7
				v14.9C1515.8,220.3,1509.2,226.8,1501.1,226.8z"/>
		</g>
		<g>
			<path class="st31" d="M1496.8,191c-0.4-0.3-0.8-0.8-1.2-1.2c-0.9-1.1-1.3-2.2-1.4-3.2v-0.3c0-1.2,0.6-2.4,1.1-3.4
				c0.8-1.4,1.5-2.9,1.6-4.6c0.1-1.6-0.4-3.2-1.4-4.7c-0.5-0.7-0.9-1.2-1.4-1.6c-0.2-0.1-0.3-0.2-0.4-0.3c-0.2-0.1-0.7-0.2-1,0
				c-0.3,0.1-0.6,0.5-0.6,0.8c0,0.3,0.1,0.7,0.4,0.9c1.4,1.1,2.3,2.9,2.3,4.4v0.1c0,1.4-0.7,2.6-1.4,3.9l0,0
				c-0.8,1.4-1.5,2.9-1.4,4.6c0.1,1.6,0.7,3.1,1.7,4.5c0.3,0.4,0.8,1,1.3,1.5l0,0c0.1,0.1,0.2,0.2,0.5,0.3c0.2,0.1,0.4,0.1,0.5,0.1
				c0.2,0,0.3,0,0.4-0.1c0.4-0.1,0.7-0.5,0.7-1C1497.2,191.6,1497,191.3,1496.8,191L1496.8,191z M1503.3,191
				c-0.4-0.3-0.8-0.8-1.2-1.2c-0.9-1.1-1.3-2.2-1.4-3.2v-0.3c0-1.2,0.6-2.4,1.1-3.4c0.8-1.4,1.5-2.9,1.6-4.6
				c0.1-1.6-0.4-3.2-1.4-4.7c-0.5-0.7-0.9-1.2-1.4-1.6c-0.2-0.1-0.3-0.2-0.4-0.3c-0.2-0.1-0.7-0.2-1,0c-0.3,0.1-0.6,0.5-0.6,0.8
				c0,0.3,0.1,0.7,0.4,0.9c1.4,1.1,2.3,2.9,2.3,4.4v0.1c0,1.4-0.7,2.6-1.4,3.9l0,0c-0.8,1.4-1.5,2.9-1.4,4.6
				c0.1,1.6,0.7,3.1,1.7,4.5c0.3,0.4,0.8,1,1.3,1.5l0,0c0.1,0.1,0.2,0.2,0.5,0.3c0.2,0.1,0.4,0.1,0.5,0.1c0.2,0,0.3,0,0.4-0.1
				c0.4-0.1,0.7-0.5,0.7-1C1503.8,191.6,1503.6,191.3,1503.3,191L1503.3,191z M1509.9,191c-0.4-0.3-0.8-0.8-1.2-1.2
				c-0.9-1.1-1.3-2.2-1.4-3.2v-0.3c0-1.2,0.6-2.4,1.1-3.4c0.8-1.4,1.5-2.9,1.6-4.6c0.1-1.6-0.4-3.2-1.4-4.7
				c-0.5-0.7-0.9-1.2-1.4-1.6c-0.2-0.1-0.3-0.2-0.4-0.3c-0.2-0.1-0.7-0.2-1,0c-0.3,0.1-0.6,0.5-0.6,0.8c0,0.3,0.1,0.7,0.4,0.9
				c1.4,1.1,2.3,2.9,2.3,4.4v0.1c0,1.4-0.7,2.6-1.4,3.9l0,0c-0.8,1.4-1.5,2.9-1.4,4.6c0.1,1.6,0.7,3.1,1.7,4.5
				c0.3,0.4,0.8,1,1.3,1.5l0.1,0c0.1,0.1,0.2,0.2,0.5,0.3c0.2,0.1,0.4,0.1,0.5,0.1c0.2,0,0.3,0,0.4-0.1c0.4-0.1,0.7-0.5,0.7-1
				C1510.3,191.6,1510.1,191.3,1509.9,191L1509.9,191z"/>
		</g>
	</g>
</g>
<path class="st15" d="M1480.5,308.3h-102.7c-24,0-43.7-19.7-43.7-43.7v-7.8c0-1.7,1.4-3,3-3l183.9,0c1.7,0,3,1.4,3,3v7.8
	C1524.2,288.7,1504.5,308.3,1480.5,308.3z"/>
<g>
	<path class="st34" d="M1870.1,310.9h-77.7v-45.6c0-6.8,5.5-12.3,12.3-12.3h53.1c6.8,0,12.3,5.5,12.3,12.3V310.9z"/>
	<path class="st34" d="M1650.7,310.9h-77.7v-45.6c0-6.8,5.5-12.3,12.3-12.3h53.1c6.8,0,12.3,5.5,12.3,12.3V310.9z"/>
	<path class="st42" d="M1858.3,240.9c0,0,4.9,34.3-30.8,38.6c-33.3,4-55.6,8-54.3,32.5c1,18.8-25.8,15.5-25.3,7.7
		c0.5-7.8-5.6-49.9,34.9-62.4c38.2-11.7,22.1-16.2,29.4-17.8S1858.3,240.9,1858.3,240.9z"/>
	<path class="st27" d="M1827.8,159.9c0,0-9.5,8.9-10.9,21.2c-1.4,12.3-0.2,60,2.1,60.6c2.2,0.5,29.4,0.1,31.4-6.4
		C1852.4,228.6,1864.2,157.6,1827.8,159.9z"/>
	
		<rect x="1775.9" y="165.1" transform="matrix(0.5687 -0.8225 0.8225 0.5687 617.4308 1549.1229)" class="st25" width="20" height="41.4"/>
	<path class="st24" d="M1802.6,183.4c0,0-5.6-9.4-11.2-8.3c-5.5,1.2-10.5,2.7-10.5,4s10.9,10,14,10.9
		C1798.1,191,1804.5,186.2,1802.6,183.4z"/>
	
		<rect x="1784.5" y="173.8" transform="matrix(0.565 -0.8251 0.8251 0.565 636.0925 1558.4874)" class="st35" width="23.1" height="4.4"/>
	<path class="st66" d="M1802,181.5c-2.8,0.2-7.8,6.6-8.6,10.7c-0.8,4.1,25.5,18.3,37.2,12.9c8.5-4,14.8-22.6,15.2-28.9
		c0.4-6.4,2.3-20-7.3-20.9c-9.3-0.9-16.8,32.4-19.7,33.5S1807.3,181.1,1802,181.5z"/>
	<path class="st24" d="M1841.3,166.8L1841.3,166.8c3.4-1.2,5.3-5,4.1-8.5l-5.3-19.1c-1.2-3.4-4.5,0.2-7.9,1.4l0,0
		c-3.4,1.2-7.4,4.9-6.2,8.3l4.4,14.4C1831.6,166.8,1837.8,168.1,1841.3,166.8z"/>
	<g>
		<g>
			<path class="st15" d="M1832.8,125.6l-19.7,5.4c-7,1.9-14.3-2.2-16.2-9.2v0l19.7-5.4C1823.6,114.5,1830.9,118.6,1832.8,125.6
				L1832.8,125.6z"/>
			<path class="st24" d="M1828.7,151.6L1828.7,151.6c8.6-2.6,13.6-11.9,10.9-20.5l-2.2-7.1c-2.6-8.6-11.9-13.6-20.5-10.9v0
				c-8.6,2.6-13.6,11.9-10.9,20.5l2.2,7.1C1810.8,149.4,1820.1,154.3,1828.7,151.6z"/>
			<path class="st15" d="M1832.1,117.9l-0.3,6.2c-0.3,5.8-5.2,10.3-11,10h0l0.3-6.2C1821.4,122.1,1826.3,117.6,1832.1,117.9
				L1832.1,117.9z"/>
			<path class="st15" d="M1839.1,120.7l2,6.4c1.8,6.1-0.1,14.6-5.5,16.2l-2.4,0.7l-6-20.2L1839.1,120.7z"/>
			<path class="st15" d="M1835.8,123.7L1813,126c-7.2,0.8-13.7-4.5-14.5-11.7v0l22.7-2.4C1828.5,111.2,1835,116.4,1835.8,123.7
				L1835.8,123.7z"/>
			<path class="st15" d="M1838.6,124.1l-19.4-1.2c-7.8,0.2-14.2-5.6-14.2-12.9v0l19.4-0.4c7.8-0.2,16.2,8.4,15.4,15L1838.6,124.1z"
				/>
			<path class="st24" d="M1827.2,140.3L1827.2,140.3l-0.7-8.3c-0.2-1.8,1.2-3.3,2.9-3.5l0,0c1.8-0.2,3.3,1.2,3.5,2.9l0.2,1.9
				C1833.4,136.9,1830.8,140,1827.2,140.3z"/>
		</g>
		<path class="st24" d="M1805.9,133.6c0,0-0.7,6.5-0.9,10c-0.1,1.2,3.5,1.9,5.4,1.3c1.9-0.6-3.8-11.8-3.8-11.8L1805.9,133.6z"/>
		<circle class="st41" cx="1813.6" cy="136.4" r="2"/>
		<path class="st67" d="M1820.3,144.8c0,0-0.8,2.1-2.8,3"/>
		<path class="st15" d="M1815,132.6l-4.8,0.9c-0.4,0.1-0.9-0.2-0.9-0.6l-0.1-0.7c-0.1-0.4,0.2-0.9,0.6-0.9l4.8-0.9
			c0.4-0.1,0.9,0.2,0.9,0.6l0.1,0.7C1815.8,132.1,1815.5,132.6,1815,132.6z"/>
	</g>
	<polygon class="st26" points="1794.1,210.4 1805.5,193.9 1766.1,168 1760.1,186.8 	"/>
	<path class="st30" d="M1840.9,153.3c-0.8,1.5-1.8,2.9-5.4,3.6c-6.6,1.3-7.2,0.7-7.2,0.7l-2.5,2.2c-2.3,2-9,10-11,19.3
		c-3.3,15.7-6.7,52.8-5,64.4c2.3,14.8,49.3,17.8,49.5,8c0.4-18-1.7-58.1-3.3-68.1c-2.3-14.6-12.6-25-12.6-25L1840.9,153.3z"/>
	<path class="st17" d="M1843.4,177c0,1.6,0.1,14.6-11,32c-8.8,13.8-49.2-5-48.7-6.3c0.5-1.3,4.3-4.1,7.4-3.4
		c3.5,0.9,28.2,2.8,30,0.3c1.8-2.5,7-21.4,8-24s4.4-8.9,9.5-7.4C1843.4,169.6,1843.3,173.3,1843.4,177z"/>
	<path class="st30" d="M1824,165.9c-3.4,0-5.6-9.8,1.8-12.4c8.2-3,11.6-9.9,17.6-9.5c4.3,0.3,4.9,2.9,6.9,5.4
		c3.5,4.3,12.6,6.8,12.2,14c-0.2,4.4-2.6,9.4-15.9,5.3C1833.3,164.5,1824,165.9,1824,165.9z"/>
	<path class="st15" d="M1793.6,279.8h-144.8c-24,0-43.7-19.7-43.7-43.7v-24.6c0-1.7,1.4-3,3-3h226.1c1.7,0,3,1.4,3,3v24.6
		C1837.3,260.1,1817.6,279.8,1793.6,279.8z"/>
	<g>
		<g>
			<path class="st22" d="M1756.8,215.1h-7c-5.3,0-9.6-4.4-9.6-9.8s4.3-9.8,9.6-9.8h7c5.3,0,9.6,4.4,9.6,9.8S1762,215.1,1756.8,215.1
				z M1749.8,199.3c-3.2,0-5.8,2.7-5.8,6s2.6,6,5.8,6h7c3.2,0,5.8-2.7,5.8-6s-2.6-6-5.8-6H1749.8z"/>
			<path class="st22" d="M1737.9,225.4L1737.9,225.4c-9.2,0-16.7-7.5-16.7-16.7v-17c0-1.1,0.9-2,2-2h29.4c1.1,0,2,0.9,2,2v17
				C1754.5,217.9,1747.1,225.4,1737.9,225.4z"/>
		</g>
	</g>
	<g>
		<g>
			<path class="st22" d="M1656.5,223.1c0-5.4,4.3-9.8,9.6-9.8h7c5.3,0,9.6,4.4,9.6,9.8s-4.3,9.8-9.6,9.8h-7
				C1660.7,232.9,1656.5,228.5,1656.5,223.1z M1666,217.1c-3.2,0-5.8,2.7-5.8,6s2.6,6,5.8,6h7c3.2,0,5.8-2.7,5.8-6s-2.6-6-5.8-6
				H1666z"/>
			<path class="st22" d="M1684.9,243.2L1684.9,243.2c9.2,0,16.7-7.5,16.7-16.7v-17c0-1.1-0.9-2-2-2h-29.4c-1.1,0-2,0.9-2,2v17
				C1668.3,235.8,1675.7,243.2,1684.9,243.2z"/>
		</g>
	</g>
	<path class="st24" d="M1799.1,199.7c-1.5-0.5-3.5-4.1-5.2-6.8c-1.1-1.7-4.8-6.5-5.2-4.2c-0.3,2.3,0.5,4.6,0.6,6
		c0.2,1.4-5.8-1.7-9.2-3.1c-4.9-2-9.5,0.5-9.7,2s8.6,10.1,23,14.1C1805.5,211.1,1801,200.3,1799.1,199.7z"/>
	<path class="st31" d="M1793.8,193.4c-2.8,0.2-7,11.5-7.8,15.6c-0.8,4.1,33.3,9.4,45,4c8.5-4,14.8-22.6,15.2-28.9
		c0.4-6.4,2.3-19.8-7.3-20.9c-13.5-1.6-13.5,31-18,32.2C1818,196.1,1799.1,193,1793.8,193.4z"/>
</g>
<g>
	<g>
		<path class="st16" d="M97.2,178.1l43.6-43.5c1.1-1.1,2.9-1.1,4,0l43.7,43.5c1.1,1.1,1.1,2.9,0,4.1l-43.7,43.4
			c-1.1,1.1-2.9,1.1-4,0l-43.6-43.4C96.1,181,96.1,179.2,97.2,178.1z"/>
		<path class="st17" d="M119.7,175.5c1.5-1.5,4-1.5,5.5,0l14.3,14.2v-30.3c0-1.9,1.4-3.5,3.3-3.5c1.9,0,3.6,1.6,3.6,3.5v30.2
			l14.2-14.1c1.5-1.5,4-1.5,5.5,0c1.6,1.5,1.6,3.9,0,5.5l-19.7,19.7v99.9c0,1.9-1.6,3.5-3.5,3.5s-3.5-1.6-3.5-3.5v-100
			c0,0-0.1-0.1-0.1-0.1l-19.6-19.6C118.2,179.4,118.2,177,119.7,175.5z"/>
	</g>
	<g>
		<path class="st17" d="M145.3,260.1l-1.8,1.8c-0.7,0.7-1.8,0.7-2.4,0l-28.5-28.5c-0.7-0.7-0.7-1.8,0-2.4l1.8-1.8
			c0.7-0.7,1.8-0.7,2.4,0l28.5,28.5C146,258.3,146,259.4,145.3,260.1z"/>
		<path class="st16" d="M132.6,229.8l-16.6-16.5c-0.9-0.9-2.4-0.9-3.4,0l-16.6,16.5c-0.9,0.9-0.9,2.4,0,3.4l16.6,16.5
			c0.9,0.9,2.4,0.9,3.4,0l16.6-16.5C133.6,232.3,133.6,230.8,132.6,229.8z"/>
	</g>
</g>
<g>
	<g>
		<rect x="2059.2" y="73.1" class="st24" width="123.3" height="73"/>
		<rect x="2059.2" y="114.2" class="st27" width="123.3" height="7.9"/>
		<rect x="2059.2" y="73.1" class="st34" width="123.4" height="41.2"/>
		<g>
			<polygon class="st22" points="2083.1,102.6 2073.8,102.6 2073.8,87.7 2078.4,84.3 2083.1,87.7 			"/>
		</g>
		<g>
			<polygon class="st22" points="2168.2,102.6 2159,102.6 2159,87.7 2163.6,84.3 2168.2,87.7 			"/>
		</g>
		<rect x="2159.2" y="129.6" class="st68" width="9.2" height="9.6"/>
		<rect x="2073.5" y="129.6" class="st26" width="9.2" height="9.6"/>
	</g>
	<g>
		<polygon class="st34" points="2146.7,60.3 2094.7,60.3 2094.7,56.3 2120.7,36.9 2146.7,56.3 		"/>
		<polygon class="st26" points="2146.7,146.4 2094.7,146.4 2094.7,60.9 2120.7,41.5 2146.7,60.9 		"/>
		<polygon class="st22" points="2117.2,84.2 2108.1,84.2 2108.1,69.4 2112.6,66 2117.2,69.4 		"/>
		<polygon class="st22" points="2133.8,84.2 2124.7,84.2 2124.7,69.4 2129.3,66 2133.8,69.4 		"/>
		<rect x="2108.1" y="98" class="st22" width="9.1" height="14.8"/>
		<rect x="2124.7" y="98" class="st22" width="9.1" height="14.8"/>
	</g>
	<g>
		<polygon class="st25" points="2128.7,146.4 2114.1,146.4 2114.1,123.3 2121.4,118 2128.7,123.3 		"/>
	</g>
</g>
<path class="st0" d="M2235.7,141.1c-1.6-9.3-9.7-16.4-19.6-16.4c-3.6,0-6.9,0.9-9.8,2.5c-4-9.2-13.3-15.7-24.2-15.7
	c-11.5,0-21.1,7.1-24.8,17.2c-1.6-0.5-3.3-0.8-5.1-0.8c-8,0-14.7,5.6-16.3,13c-0.2,1-0.4,2.2-0.4,3.3c0,0.6,0,1.9,0.1,2.1
	c0.2,0.7,0.9,1.5,1.7,1.5h20.5h10.6h27.9h10h27.7c0.8,0,1.5-0.8,1.7-1.5C2236.2,145.4,2235.9,142.1,2235.7,141.1z"/>
<g>
	<circle class="st31" cx="1255" cy="118.6" r="9.7"/>
	<circle class="st31" cx="1280.6" cy="118.6" r="9.7"/>
	<circle class="st31" cx="1306.7" cy="118.6" r="9.7"/>
	<circle class="st31" cx="1332.5" cy="118.6" r="9.7"/>
</g>
<path class="st69" d="M2103.1,259.6c-4.3-25.5-26.7-44.9-53.8-44.9c-9.8,0-19,2.4-26.9,6.9c-11-25.3-36.5-43-66.3-43
	c-31.4,0-57.9,19.6-67.9,47.1c-4.5-1.4-9.2-2.2-14.1-2.2c-22,0-40.4,15.3-44.7,35.7c-0.6,2.9-1,5.9-1,9c0,1.6,0,5.2,0.2,5.9
	c0.6,1.8,2.4,4,4.7,4h56.1h29.2h76.5h27.3h76.1c2.2,0,4.1-2.2,4.7-4.2C2104.3,271.6,2103.5,262.5,2103.1,259.6z"/>
</svg>
