<svg aria-label="Students" class="_2YAsIJAi _1ndkxnPY" role="img" tabindex="" viewBox="0 0 160 80" xmlns="http://www.w3.org/2000/svg">
    <g clip-path="url(#clip0)">
        <path d="M95.0404 124.371C129.338 88.6557 140.51 108.804 159.263 75.682C166.764 62.4508 137.669 52.4475 103.225 25.7853C68.782 -0.876893 28.1392 6.66666 8.35834 43.714C-11.4226 80.7614 5.4682 153.529 42.5899 155.567C65.3006 156.796 80.9692 139.032 95.0404 124.371Z" fill="#C8CEF6" opacity="0.25"></path>
        <path d="M126.064 63.25L119.794 55.6087V54.2767L118.806 49.628L116.494 46.6399L102.961 42.9858L101.972 42.3198L102.303 40.9878L104.951 37.9997L105.613 36.0061L105.944 32.352L108.9 30.394L109.888 28.0674L109.562 26.398L108.573 25.066L108.904 23.4054L109.566 22.4108H110.554L112.205 16.4302L110.881 10.1209L105.93 3.81611L98.3365 0.494995L93.0769 1.48955L87.4643 5.48555L84.4947 5.81855L80.2058 11.4662L79.8396 21.07H81.1633L82.1517 23.734L80.1706 25.3945L81.1633 29.062L82.8136 30.7225L83.4754 34.7185L84.1373 37.3825L80.5059 38.3771L77.5363 41.3652L77.8673 39.0386V36.0327L75.8861 31.3841L72.9209 25.066L71.2707 13.109L69.2895 7.46136L65.6581 4.14024L62.0267 3.14567L58.3952 3.47867L53.4445 1.81811L48.1496 3.15011L42.2061 7.14611L37.9216 14.774L38.91 18.77L37.2597 23.0857L33.9504 29.3905L34.3034 35.722L36.5979 40.3529L35.936 41.0189L33.6239 45.3346L34.2858 49.6502L35.2742 51.3108L31.303 56.2925L24.6843 70.243L20.7132 81.5339V83.8604L21.7015 88.5091L30.2837 103.454L32.2649 105.115L33.9151 107.108L37.2156 107.441L40.1852 108.107V108.858L40.847 111.184L110.824 110.518V102.127L108.842 101.461L113.462 99.8L115.443 98.468L114.782 94.472L113.131 92.8115L109.5 87.4835L107.519 80.8235L106.919 75.238L109.231 76.8985L112.862 79.5625L111.874 80.8945L116.163 84.8905L127.053 93.1622L135.966 90.1741L138.935 82.8659L126.064 63.25ZM39.5807 97.4602L37.9304 97.5889L32.5385 83.7184L36.2802 75.5576L38.9276 78.8787L39.5895 94.4898L39.5807 97.4602Z" fill="white"></path>
        <path d="M111.428 98.8322L105.763 94.6497L101.231 82.8659L100.852 74.1236L101.019 73.3022L99.7175 72.6051L100.097 71.0866L99.7175 69.9455L100.472 68.0452V66.9041L101.606 63.8627L103.031 63.0413L102.744 64.8173L104.254 57.3981L108.225 49.2241L105.392 47.5147L100.097 53.5975L94.8021 55.8796L89.5072 54.3611L87.076 51.6705L84.5962 45.6188L81.9487 46.0006C81.9487 46.0006 82.1782 50.1476 82.2797 52.1633L81.6046 76.0239L80.4706 84.3889L78.9571 90.0898L75.9346 94.2723L78.582 95.4134L80.85 97.3137L81.6046 98.4548L82.7385 102.255L95.5831 102.637L112.584 99.9733L111.428 98.8322Z" fill="#FEEB8E"></path>
        <path d="M107.276 75.642L108.406 76.4056L110.294 78.306L112.941 79.447L111.808 80.9655L113.568 82.8037L113.696 93.069L109.54 87.4302L107.276 80.2063V75.642Z" fill="#FEEB8E"></path>
        <path clip-rule="evenodd" d="M87.0426 50.1544C88.424 52.5927 90.6378 54.9226 94.0993 55.0386C97.5966 55.1558 100.146 53.1341 101.861 50.9858C102.714 49.9162 103.343 48.8353 103.759 48.0202C103.966 47.6134 104.119 47.275 104.22 47.0401C104.27 46.9227 104.308 46.8314 104.332 46.7705C104.344 46.74 104.353 46.7172 104.358 46.7026L104.364 46.6868L104.365 46.6838L104.365 46.6833L104.613 46.0112L108.887 48.2869L108.303 49.3975L105.261 47.778C105.16 48.0043 105.029 48.2807 104.87 48.5938C104.427 49.4616 103.754 50.6193 102.834 51.7725C101.001 54.0697 98.1145 56.4303 94.0577 56.2944C89.9651 56.1573 87.4334 53.3812 85.9578 50.7768C85.2161 49.4677 84.7222 48.1722 84.4137 47.2069C84.2591 46.7231 84.1502 46.3196 84.0796 46.0352C84.0443 45.8929 84.0185 45.7802 84.0013 45.702C83.9927 45.6628 83.9863 45.6323 83.9819 45.611L83.9768 45.586L83.9754 45.5788L83.9749 45.5765L83.9748 45.5757C83.9747 45.5754 83.9747 45.5752 84.5874 45.4545C85.2001 45.3338 85.2001 45.3336 85.2001 45.3335L85.2008 45.3375L85.2045 45.3552C85.2078 45.3715 85.2132 45.397 85.2206 45.4308C85.2355 45.4986 85.2587 45.6001 85.2911 45.7307C85.356 45.9918 85.4574 46.3683 85.6025 46.8222C85.8932 47.7321 86.3557 48.9421 87.0426 50.1544Z" fill-rule="evenodd" fill="#6E5CFF"></path>
        <path d="M114.83 52.6472L118.607 54.734L124.273 61.5805L139.006 82.8659L135.988 90.0897L126.92 92.7493L111.808 81.5383L118.228 72.2232L131.452 78.6834L116.719 71.4639L113.696 65.3811L109.919 63.4808L114.451 53.9748L114.83 52.6472Z" fill="#FEEB8E"></path>
        <path d="M67.9835 91.9901L61.5634 98.4503L50.6073 81.7248L50.9824 77.5423L72.5194 50.556L75.1625 49.6058L75.5419 60.8168L73.9358 85.2413L72.5194 72.2232L63.4519 80.2063L67.9835 91.9901Z" fill="#FEEB8E"></path>
        <path d="M52.7031 12.4163C55.077 16.3058 58.4393 18.77 61.1971 19.5781C63.4033 20.2219 69.4704 20.2663 69.4704 20.2663L69.3821 21.5139L66.0507 22.251L66.8273 23.9737L67.3965 25.3057L63.3989 33.9326L59.4497 38.1506C59.4497 38.1506 59.3483 44.4598 63.3989 46.7598C64.7755 47.5412 69.616 49.5747 69.616 49.5747L73.7857 44.6907L71.2353 38.5902C72.5604 39.8147 73.5806 41.3356 74.2137 43.0302C75.0831 42.4965 75.786 41.7278 76.2424 40.8117C76.6988 39.8956 76.8902 38.8689 76.795 37.8487C76.5567 34.8828 71.8531 27.1261 71.8531 27.1261C71.8531 27.1261 72.3605 9.20179 66.7302 5.47219C64.7226 4.14019 62.1369 4.18903 60.0807 4.71739C59.2777 4.92607 58.3731 5.42779 57.5524 4.89943C54.8299 3.15007 51.0573 3.74059 49.9763 4.01143C49.9807 4.00699 51.5427 10.5205 52.7031 12.4163Z" fill="#94F0DD"></path>
        <path d="M48.5378 4.67749C48.5378 4.67749 48.679 8.80669 48.8732 10.4806C49.1404 12.4471 49.7372 14.3537 50.6381 16.1194C49.5202 17.6367 48.2805 19.0593 46.9317 20.3729C45.6962 21.4784 41.3411 24.4932 41.3411 24.4932L44.6549 31.1221L49.9763 38.4126C49.9763 38.4126 51.1279 43.5186 46.4022 44.3356C42.6958 44.9794 36.2139 48.5891 36.2139 48.5891C36.2139 48.5891 34.7269 45.9562 35.8521 43.9848C37.5729 40.9745 39.8233 40.97 39.8233 40.97L37.8774 39.9266C37.8774 39.9266 35.7903 35.722 35.7153 31.726C35.6138 26.9352 38.6452 21.3142 38.6452 21.3142C38.6452 21.3142 37.9524 15.4578 38.9011 13.8505C43.4944 6.07609 48.5378 4.67749 48.5378 4.67749Z" fill="#94F0DD"></path>
        <path d="M75.4625 44.9573L74.6551 44.1092C79.3587 39.5893 77.5628 35.7043 73.9844 29.2352C72.3474 26.2737 71.8532 22.442 71.3766 18.7391C71.006 15.8486 70.653 13.118 69.8058 10.787C67.7011 5.01502 63.8182 2.6485 58.8762 4.16698L58.6159 4.2469L58.3865 4.09594C53.3828 0.819216 46.6715 3.20794 43.0754 7.37266C41.5134 9.19306 39.3998 13.0914 38.7291 15.0672C39.8719 18.4727 40.022 20.0666 37.5995 23.8673C37.3745 24.218 37.1583 24.5643 36.9068 24.8973C35.8302 26.4558 34.7006 28.0675 34.555 31.1133C34.4692 34.3099 35.3677 37.455 37.1274 40.1177L36.1787 40.797C34.2701 37.9086 33.2975 34.4962 33.3945 31.029C33.5798 27.6679 34.8418 25.8386 35.9537 24.2269C36.1876 23.8895 36.395 23.5698 36.62 23.2368C38.8924 19.6848 38.6541 18.4815 37.5642 15.2448L37.5025 15.0627L37.5598 14.8807C38.204 12.8294 40.4676 8.5981 42.1973 6.59122C46.067 2.08906 53.2857 -0.459504 58.7968 2.95042C64.2197 1.4053 68.6233 4.09594 70.9045 10.3652C71.787 12.8205 72.1709 15.7421 72.5371 18.5703C72.9783 22.1623 73.4769 25.8786 75.0081 28.6491C78.2468 34.5233 81.0487 39.5893 75.4625 44.9573Z" fill="#6E5CFF"></path>
        <path d="M55.0991 35.1492C54.6059 35.1483 54.116 35.0688 53.6474 34.9139C52.9573 34.6922 52.3285 34.3105 51.8119 33.7994C51.7517 33.7409 51.7047 33.6701 51.6739 33.5918C51.6432 33.5135 51.6294 33.4295 51.6336 33.3454C51.6378 33.2613 51.6598 33.179 51.6981 33.1042C51.7365 33.0293 51.7903 32.9636 51.856 32.9114C51.9704 32.8248 52.1122 32.7829 52.2551 32.7935C52.3979 32.8041 52.532 32.8665 52.6326 32.9692C53.022 33.35 53.4929 33.636 54.0091 33.8053C54.5254 33.9746 55.0733 34.0227 55.611 33.946C55.7517 33.9222 55.8962 33.9505 56.0179 34.0256C56.1395 34.1006 56.2301 34.2174 56.2728 34.3544C56.2966 34.4326 56.3039 34.5149 56.2941 34.5961C56.2844 34.6773 56.2579 34.7555 56.2164 34.8257C56.1748 34.896 56.1191 34.9567 56.0528 35.004C55.9866 35.0513 55.9112 35.0841 55.8316 35.1004C55.5891 35.1362 55.3442 35.1525 55.0991 35.1492Z" fill="#6E5CFF"></path>
        <path d="M46.0802 46.5156L45.9743 45.3479C48.1805 45.1481 49.4601 41.454 49.3895 38.1462L50.5544 38.124C50.6382 41.9824 49.0939 46.2359 46.0802 46.5156Z" fill="#6E5CFF"></path>
        <path d="M63.8533 47.4746C60.4999 45.6986 58.779 42.4485 58.8673 38.1195L60.0321 38.1417C59.9527 42.0001 61.4618 44.8683 64.4004 46.4356L63.8533 47.4746Z" fill="#6E5CFF"></path>
        <path d="M54.7109 40.0598C48.763 40.0598 45.2154 34.612 43.9843 29.95C43.4495 27.8964 43.0908 25.8004 42.9121 23.6851L44.077 23.6274C44.2531 25.6616 44.6 27.6772 45.1139 29.6525C46.2391 33.9149 49.4248 38.8921 54.7109 38.8921C59.997 38.8921 63.1916 33.906 64.3123 29.6392C64.63 28.4315 64.8551 25.7186 64.961 23.583L66.1258 23.6407C66.0729 24.7063 65.8699 28.3072 65.4375 29.9366C64.2153 34.6075 60.6677 40.0598 54.7109 40.0598Z" fill="#6E5CFF"></path>
        <path d="M65.3889 29.3195L64.9477 28.2317C65.4573 28.0015 65.8893 27.6271 66.191 27.154C66.4926 26.681 66.6509 26.1298 66.6465 25.5677C66.6465 25.1237 66.5053 24.5554 66.1126 24.4L66.5538 23.3077C67.3481 23.623 67.8246 24.4666 67.8246 25.5633C67.8259 26.3599 67.5961 27.1397 67.1635 27.8069C66.7308 28.4741 66.1141 28.9998 65.3889 29.3195Z" fill="#6E5CFF"></path>
        <path d="M43.7195 29.506C42.9951 29.1857 42.3793 28.6597 41.9475 27.9925C41.5157 27.3254 41.2866 26.546 41.2882 25.7498C41.2882 24.6531 41.7648 23.8095 42.559 23.4943L43.0003 24.5865C42.6076 24.7419 42.4664 25.2925 42.4664 25.7542C42.4619 26.3163 42.6202 26.8675 42.9219 27.3405C43.2235 27.8136 43.6555 28.1881 44.1651 28.4182L43.7195 29.506Z" fill="#6E5CFF"></path>
        <path d="M55.6816 31.1887C55.4365 31.1871 55.1918 31.1693 54.9491 31.1354L55.1036 29.9721C55.836 30.0698 56.3743 29.9988 56.617 29.7679C56.6964 29.6733 56.7535 29.5619 56.7841 29.4419C56.8147 29.322 56.8179 29.1966 56.7935 29.0753C56.4863 28.5146 56.0982 28.0029 55.6419 27.5568L55.5051 27.4147L54.8653 21.8114L55.1389 21.6116C55.2536 21.5273 57.9452 19.5781 60.875 20.9678L60.3764 22.029C58.5276 21.141 56.767 21.9846 56.1008 22.3797L56.617 26.8952C57.1509 27.4724 57.9054 28.3871 57.9407 28.9865C57.9834 29.2828 57.957 29.5851 57.8635 29.8695C57.7701 30.1538 57.6122 30.4124 57.4024 30.6248C56.9221 31.0282 56.3059 31.2301 55.6816 31.1887Z" fill="#6E5CFF"></path>
        <path d="M41.0102 25.3191L40.6749 24.178C43.0981 23.4579 45.3898 22.3484 47.4612 20.8924C48.6657 19.9865 49.7773 18.9616 50.7793 17.8333L51.6618 18.6236C50.5928 19.813 49.4105 20.8941 48.1318 21.8515C45.9592 23.3859 43.5543 24.5569 41.0102 25.3191Z" fill="#6E5CFF"></path>
        <path d="M64.0828 22.4775C60.9615 22.4757 57.9241 21.4613 55.4211 19.5849C52.9181 17.7086 51.083 15.0702 50.1881 12.0613L51.3044 11.7283C51.8025 13.4165 52.6266 14.9894 53.7295 16.3568C54.8324 17.7243 56.1924 18.8595 57.7317 19.6975C59.271 20.5354 60.9595 21.0598 62.7004 21.2404C64.4413 21.4211 66.2006 21.2546 67.8775 20.7504L68.2084 21.8737C66.8694 22.2746 65.4798 22.478 64.0828 22.4775Z" fill="#6E5CFF"></path>
        <path d="M34.8814 50.8845C33.7485 49.5265 33.1559 47.7943 33.2178 46.0223C33.2797 44.2504 33.9919 42.5643 35.2168 41.2897C36.1222 40.3821 37.2577 39.7418 38.4996 39.4382L38.7732 40.5793C37.7384 40.8314 36.7922 41.3643 36.0375 42.12C35.0196 43.1833 34.4286 44.5878 34.3781 46.0632C34.3276 47.5387 34.8212 48.9808 35.7639 50.112L34.8814 50.8845Z" fill="#6E5CFF"></path>
        <path d="M38.7378 95.8662L38.0627 83.1234L38.0583 78.488L36.0153 75.9839L38.0803 67.3081L39.2143 67.5834L37.2861 75.6908L39.2231 78.0707L39.232 83.1101L39.9071 95.8396L38.7378 95.8662Z" fill="#6E5CFF"></path>
        <path d="M32.7899 84.3267L31.7574 83.785L36.3904 74.5631L37.4273 75.1048L32.7899 84.3267Z" fill="#6E5CFF"></path>
        <path d="M30.0851 104.413C28.8849 102.078 27.5214 99.7556 26.1977 97.5134C23.4002 92.7626 20.7528 88.2693 20.1483 84.3621C19.61 81.3873 22.8443 73.2088 26.083 65.6031L26.3345 65.0082C30.3454 55.5643 32.6266 51.3996 39.157 48.1539L44.5754 45.6276L44.7078 46.409C44.7608 46.7864 46.0315 55.6753 53.718 55.7064H53.7489C58.9776 55.7064 62.8782 51.2042 63.8974 46.9596L64.0651 46.2536L64.7137 46.5688C64.7667 46.5955 70.1587 49.2018 71.5309 49.7745L71.0897 50.8579C69.9557 50.3872 66.3243 48.6379 64.8417 47.9319C63.4783 52.3986 59.2909 56.883 53.7533 56.883H53.718C46.3448 56.8563 44.2048 49.739 43.693 47.337L39.66 49.2151C33.4826 52.2698 31.2764 56.3191 27.4067 65.461L27.1552 66.056C25.3902 70.1808 20.7395 81.152 21.2999 84.149C21.8691 87.8386 24.4592 92.2342 27.2037 96.8918C28.5275 99.1473 29.9086 101.483 31.122 103.854L30.0851 104.413Z" fill="#6E5CFF"></path>
        <path d="M38.9365 77.773L38.0998 78.5886L40.1813 80.7508L41.018 79.9352L38.9365 77.773Z" fill="#6E5CFF"></path>
        <path d="M81.4325 24.3423C81.4325 24.3423 79.2263 18.6369 82.0856 12.7228C84.9448 6.80877 88.7263 6.23157 88.7263 6.23157C88.7263 6.23157 95.4905 -1.12995 104.373 4.09149C113.255 9.31293 111.512 17.8555 111.512 17.8555L108.904 25.7898L98.7292 23.3344L93.9594 19.8668L89.9882 15.5822L85.4743 22.1001L83.1754 23.8406L81.4325 24.3423Z" fill="#C8CEF6"></path>
        <path d="M110.727 23.2366L109.637 22.8459L110.431 20.5504C112.293 14.4898 110.599 10.1786 108.847 7.63002C106.001 3.48306 101.302 1.3785 98.1379 1.1787C92.0576 0.792421 87.9893 5.59206 87.954 5.6409L87.7908 5.83626H87.5393C85.7478 5.93838 84.0932 6.85746 82.7518 8.50026C80.6779 11.0266 79.7425 14.7562 80.2455 18.4725L80.7221 21.5139L79.5748 21.6915L79.1336 18.6545C78.5865 14.6097 79.619 10.5471 81.8958 7.7721C82.5446 6.92947 83.3536 6.22507 84.2754 5.69989C85.1973 5.17471 86.2138 4.83922 87.2657 4.71294C88.1482 3.7539 92.2208 -0.353099 98.2482 0.0243006C101.778 0.246301 106.76 2.48406 109.84 6.97734C111.737 9.74346 113.577 14.4055 111.574 20.9189L110.727 23.2366Z" fill="#6E5CFF"></path>
        <path d="M101.537 41.4536L101.272 45.7255L102.43 45.7982L102.695 41.5263L101.537 41.4536Z" fill="#6E5CFF"></path>
        <path d="M121.55 59.0941C119.92 56.5032 117.58 54.4418 114.812 53.1578L115.276 52.0878C118.269 53.4598 120.796 55.686 122.543 58.4902L121.55 59.0941Z" fill="#6E5CFF"></path>
        <path d="M67.004 57.811L66.1215 57.0473L72.3739 49.708L75.061 48.9088L75.3876 50.0321L73.0313 50.7292L67.004 57.811Z" fill="#6E5CFF"></path>
        <path d="M87.0485 40.7356L86.7773 45.1094L87.9356 45.1821L88.2067 40.8083L87.0485 40.7356Z" fill="#6E5CFF"></path>
        <path d="M106.755 24.6219L106.685 25.7896C104.413 25.6458 102.179 25.1376 100.066 24.2845C99.497 24.0536 98.9498 23.8049 98.4292 23.5519C96.8107 22.7416 95.2877 21.7512 93.8888 20.5993C92.4421 19.4191 91.1321 18.0786 89.9838 16.6033L84.3006 24.2889L83.3696 23.5963L90.0279 14.5653L90.4691 15.2668C92.9686 18.7065 96.3434 21.4045 100.238 23.0768C101.265 23.5118 102.327 23.8607 103.411 24.1202C104.51 24.3816 105.629 24.5494 106.755 24.6219Z" fill="#6E5CFF"></path>
        <path d="M106.729 32.494L106.155 31.4773L107.58 30.6648C108.058 30.4028 108.414 29.9628 108.573 29.4393L109.014 27.8676C109.082 27.6429 109.096 27.4055 109.056 27.1743C109.016 26.9431 108.923 26.7244 108.785 26.5356C108.615 26.3004 108.395 26.1068 108.141 25.9692C107.886 25.8316 107.604 25.7535 107.316 25.7408L105.511 25.6254L105.582 24.4576L107.386 24.5731C107.849 24.5976 108.3 24.7264 108.706 24.9501C109.113 25.1737 109.464 25.4864 109.734 25.8651C109.968 26.1954 110.124 26.5746 110.192 26.9743C110.26 27.3741 110.238 27.7842 110.126 28.1739L109.685 29.7457C109.443 30.563 108.892 31.2519 108.15 31.6638L106.729 32.494Z" fill="#6E5CFF"></path>
        <path d="M82.5973 31.2153L81.2736 30.2385C80.5744 29.7434 80.0985 28.99 79.9498 28.1428L79.6895 26.5267C79.6271 26.13 79.6546 25.7243 79.77 25.3399C79.8853 24.9555 80.0856 24.6022 80.3558 24.3067C80.676 23.9531 81.0722 23.6777 81.5141 23.5015C81.9561 23.3253 82.4322 23.253 82.9062 23.2899L83.8725 23.3521L83.8107 24.5242L82.8444 24.4621C82.5486 24.433 82.2502 24.4722 81.9718 24.5769C81.6935 24.6815 81.4426 24.8488 81.2383 25.0659C81.0829 25.2318 80.9674 25.4313 80.9009 25.6492C80.8343 25.8671 80.8184 26.0974 80.8544 26.3224L81.1147 27.9386C81.213 28.4771 81.5171 28.9553 81.9619 29.2706L83.2856 30.2474L82.5973 31.2153Z" fill="#6E5CFF"></path>
        <path d="M94.4492 44.5353C92.2521 44.5302 90.1359 43.7006 88.5145 42.2088L88.0468 41.7648C84.4198 40.6237 82.2533 37.0806 82.5268 32.6983C82.5536 32.2716 82.6096 31.8473 82.6945 31.4284C82.98 29.7967 83.1276 28.1435 83.1358 26.4867C83.1578 25.7896 83.1843 25.0704 83.2284 24.3555L83.2858 23.4675L84.4462 23.5386L84.3889 24.4266C84.3448 25.1236 84.3227 25.834 84.3006 26.5222C84.2969 28.2426 84.1493 29.9595 83.8594 31.6549C83.7857 32.0196 83.737 32.389 83.7138 32.7604C83.4755 36.6277 85.364 39.7357 88.5322 40.6725L88.6601 40.7125L89.322 41.3208C90.6085 42.5088 92.2612 43.2166 94.004 43.3257C95.7468 43.4348 97.474 42.9386 98.8969 41.9202L99.6294 41.4007H99.7618C103.018 40.8679 105.282 38.0218 105.498 34.1546C105.524 33.7836 105.524 33.4112 105.498 33.0402C105.413 31.3199 105.472 29.5956 105.674 27.8853C105.736 27.2016 105.802 26.4912 105.846 25.7941L105.873 25.0659L107.033 25.137L106.989 25.8562C106.945 26.5711 106.879 27.2859 106.817 27.9786C106.62 29.6223 106.561 31.2799 106.641 32.9336C106.67 33.3593 106.67 33.7866 106.641 34.2123C106.367 38.5946 103.786 41.8402 100.022 42.5151L99.5058 42.8792C98.0296 43.9413 96.2639 44.5196 94.4492 44.5353Z" fill="#6E5CFF"></path>
        <path d="M94.758 38.6923C93.5667 38.6923 92.3489 38.1817 90.9678 37.1472C90.9047 37.1001 90.8518 37.0407 90.8121 36.9725C90.7724 36.9043 90.7469 36.8287 90.737 36.7503C90.7271 36.6719 90.7331 36.5923 90.7545 36.5163C90.776 36.4403 90.8125 36.3694 90.8619 36.308C90.9563 36.1908 91.0921 36.1148 91.2408 36.0957C91.3896 36.0767 91.5399 36.1162 91.6605 36.2059C93.7961 37.8087 95.2787 37.9286 97.1408 36.6499C97.2623 36.5643 97.4116 36.5286 97.5584 36.5501C97.7052 36.5715 97.8383 36.6485 97.9306 36.7653C97.9798 36.828 98.0157 36.9001 98.0361 36.9773C98.0566 37.0544 98.0612 37.1349 98.0497 37.2139C98.0381 37.2929 98.0106 37.3687 97.9689 37.4366C97.9272 37.5046 97.8721 37.5632 97.807 37.6089C96.9271 38.2798 95.8615 38.6584 94.758 38.6923Z" fill="#6E5CFF"></path>
        <path d="M91.5238 24.1248C88.8455 23.4144 87.0584 23.8051 86.2862 24.067C86.1592 24.1091 86.0216 24.1055 85.8969 24.057C85.7722 24.0084 85.6681 23.9178 85.6023 23.8006C85.56 23.7263 85.5345 23.6436 85.5277 23.5582C85.5208 23.4729 85.5328 23.387 85.5627 23.3069C85.5926 23.2267 85.6398 23.1542 85.7008 23.0945C85.7618 23.0348 85.8351 22.9894 85.9156 22.9615C86.8687 22.6329 88.8807 22.2156 91.8194 22.997C91.8953 23.0169 91.9664 23.052 92.0284 23.1003C92.0905 23.1485 92.1422 23.2088 92.1805 23.2776C92.2188 23.3465 92.2429 23.4224 92.2514 23.5008C92.2599 23.5792 92.2525 23.6585 92.2298 23.734C92.1858 23.8788 92.0874 24.0006 91.9556 24.0736C91.8238 24.1465 91.6689 24.1649 91.5238 24.1248Z" fill="#6E5CFF"></path>
        <path d="M103.424 24.1113L103.225 24.6219C102.215 24.2522 101.133 24.1274 100.066 24.2579C99.6395 24.3123 99.2241 24.4337 98.835 24.6175C98.5346 24.7536 98.2659 24.9515 98.0463 25.1985C97.8266 25.4456 97.6609 25.7362 97.5598 26.0516C97.0391 27.6767 97.0965 29.7945 97.1185 31.3397C97.1185 31.8369 97.1406 32.2676 97.1185 32.6139V33.0579L96.6773 33.1556C96.2597 33.2471 95.8339 33.2947 95.4065 33.2977C94.8665 33.3092 94.3295 33.2126 93.8269 33.0135L94.2681 31.9391C94.8115 32.1309 95.3936 32.1843 95.9625 32.0945C95.9625 31.8725 95.9625 31.6283 95.9625 31.3619C95.9228 29.7368 95.8698 27.5035 96.4479 25.6875C96.598 25.2222 96.8421 24.7931 97.1648 24.4271C97.4875 24.0612 97.8818 23.7662 98.3231 23.5608C98.3574 23.5437 98.3928 23.5289 98.429 23.5164C99.0048 23.2634 99.62 23.1131 100.247 23.0724C101.276 23.5061 102.338 23.8536 103.424 24.1113Z" fill="#6E5CFF"></path>
        <path d="M100.859 27.4985L100.8 28.4424C100.78 28.7655 101.023 29.0436 101.343 29.0637C101.663 29.0838 101.938 28.8382 101.958 28.5151L102.017 27.5712C102.037 27.2482 101.794 26.97 101.474 26.9499C101.154 26.9299 100.879 27.1755 100.859 27.4985Z" fill="#6E5CFF"></path>
        <path d="M59.6741 24.4537L59.6156 25.3976C59.5956 25.7207 59.8386 25.9988 60.1584 26.0189C60.4783 26.039 60.7538 25.7934 60.7738 25.4703L60.8323 24.5264C60.8524 24.2034 60.6093 23.9252 60.2895 23.9051C59.9697 23.8851 59.6941 24.1307 59.6741 24.4537Z" fill="#6E5CFF"></path>
        <path d="M49.853 24.8357L49.7945 25.7796C49.7745 26.1026 50.0175 26.3808 50.3374 26.4009C50.6572 26.4209 50.9327 26.1753 50.9527 25.8523L51.0113 24.9084C51.0313 24.5853 50.7882 24.3072 50.4684 24.2871C50.1486 24.267 49.8731 24.5126 49.853 24.8357Z" fill="#6E5CFF"></path>
        <path d="M87.9492 26.7347L87.8704 28.0065C87.8504 28.3295 88.0934 28.6077 88.4132 28.6278C88.7331 28.6479 89.0086 28.4023 89.0286 28.0792L89.1075 26.8074C89.1275 26.4843 88.8845 26.2062 88.5646 26.1861C88.2448 26.166 87.9693 26.4116 87.9492 26.7347Z" fill="#6E5CFF"></path>
        <path d="M72.7798 87.2792L72.2106 77.2359L72.0694 63.3209L73.2343 63.3076L73.3711 77.2093L73.9403 87.2126L72.7798 87.2792Z" fill="#6E5CFF"></path>
        <path d="M112.836 80.0021L109.703 78.457L107.254 75.9928L102.343 74.6075L99.7396 73.4531L99.6646 73.3732C99.483 73.2188 99.3343 73.0291 99.2274 72.8155C99.1205 72.6018 99.0576 72.3687 99.0424 72.13C99.0537 71.804 99.1733 71.4913 99.3822 71.242C99.0742 70.8885 98.8994 70.4376 98.888 69.9677C98.9193 69.6604 99.0139 69.3631 99.1659 69.0948C99.3178 68.8264 99.5237 68.5929 99.7705 68.4092C99.5991 67.9456 99.5759 67.4397 99.704 66.9621C99.8322 66.4845 100.105 66.0591 100.485 65.7452L101.266 66.611C101.027 66.7837 100.863 67.0418 100.807 67.3324C100.752 67.6231 100.808 67.9241 100.966 68.1739L101.293 68.6179L100.768 69.1063C100.41 69.4393 100.071 69.7501 100.066 70.021C100.136 70.3548 100.322 70.6524 100.591 70.8601L101.032 71.2775L100.591 71.6948C100.499 71.7836 100.221 72.0634 100.221 72.1655C100.221 72.1655 100.221 72.272 100.432 72.5029L102.753 73.533L107.854 74.9804L110.382 77.5246L113.343 78.9853L112.836 80.0021Z" fill="#6E5CFF"></path>
        <path d="M104.558 72.4185L102.855 71.9345L100.004 71.6948L100.101 70.5315L103.062 70.7801L104.871 71.2952L104.558 72.4185Z" fill="#6E5CFF"></path>
        <path d="M104.2 67.6342L102.038 67.7749L102.113 68.9402L104.275 68.7995L104.2 67.6342Z" fill="#6E5CFF"></path>
        <path d="M104.615 64.3981L102.679 64.8962L102.966 66.0276L104.903 65.5294L104.615 64.3981Z" fill="#6E5CFF"></path>
        <path d="M106.508 63.4378L105.918 71.332L107.075 71.4196L107.665 63.5254L106.508 63.4378Z" fill="#6E5CFF"></path>
        <path d="M117.416 73.0891L115.298 70.7581L113.321 65.5899C112.355 65.1459 108.348 63.2856 106.791 62.8194C106.407 62.7084 104.893 63.0636 102.303 63.8761C102.237 63.9027 101.822 64.0936 101.827 65.0038H100.666C100.666 63.2278 101.769 62.8105 101.99 62.7483C104.611 61.9225 106.402 61.4563 107.152 61.6872C109.006 62.2377 113.85 64.5243 114.058 64.6176L114.27 64.7152L116.339 70.1187L118.311 72.2899L117.416 73.0891Z" fill="#6E5CFF"></path>
        <path d="M110.96 63.6939L109.813 63.5208C110.228 60.7458 112.165 56.9673 113.723 53.9304L114.283 52.8337C114.477 52.4418 114.509 51.9887 114.373 51.5729C114.237 51.1572 113.943 50.8124 113.555 50.6137L110.727 49.1574C110.343 48.9573 109.897 48.9169 109.484 49.0448C109.072 49.1727 108.725 49.4587 108.52 49.8411C106.694 53.18 104.386 58.3171 103.393 62.7171L102.259 62.4596C103.278 57.9219 105.635 52.665 107.501 49.2595C107.851 48.6143 108.437 48.1318 109.135 47.9146C109.833 47.6973 110.588 47.7625 111.238 48.0962L114.084 49.5437C114.415 49.7116 114.709 49.9436 114.95 50.2261C115.19 50.5087 115.374 50.8363 115.488 51.1903C115.603 51.5442 115.647 51.9175 115.618 52.2886C115.59 52.6598 115.488 53.0216 115.32 53.3532L114.755 54.4543C113.237 57.438 111.349 61.1232 110.96 63.6939Z" fill="#6E5CFF"></path>
        <path d="M113.348 100.222C113.081 100.222 112.817 100.175 112.567 100.084C106.808 98.0107 102.859 92.6871 101.094 84.6818C100.289 80.9146 99.9805 77.0571 100.176 73.2089L101.337 73.2977C101.152 77.0411 101.449 80.7929 102.219 84.4598C103.905 92.141 107.514 97.0295 112.946 98.9831C113.124 99.0476 113.314 99.0672 113.501 99.0401C113.688 99.013 113.866 98.9401 114.018 98.8277C114.177 98.7153 114.305 98.5653 114.392 98.391C114.479 98.2168 114.522 98.0236 114.517 97.8287L114.464 95.2046C114.461 95.0355 114.422 94.869 114.351 94.716C114.279 94.5629 114.177 94.4268 114.049 94.3166C109.853 90.6758 108.026 85.6853 107.232 82.1377C106.714 79.8759 106.474 77.5586 106.517 75.2379L107.678 75.2912C107.678 75.4067 107.236 86.8352 114.826 93.4197C115.076 93.6368 115.278 93.9043 115.418 94.2049C115.559 94.5055 115.635 94.8325 115.642 95.1647L115.695 97.7887C115.701 98.1028 115.646 98.4151 115.531 98.7073C115.416 98.9995 115.245 99.2658 115.027 99.4906C114.809 99.7154 114.548 99.8943 114.261 100.017C113.973 100.139 113.664 100.203 113.352 100.204L113.348 100.222Z" fill="#6E5CFF"></path>
        <path d="M61.5898 99.1962L49.8748 81.6271L50.9735 76.9118L63.9372 59.4537L64.8682 60.1553L52.0501 77.4135L51.1235 81.3962L61.7927 97.398L67.6215 91.8569L62.5914 80.3706L58.6732 80.9966L58.4922 79.8422L63.293 79.0741L69.0159 92.141L61.5898 99.1962Z" fill="#6E5CFF"></path>
        <path d="M63.443 80.2286L62.7238 79.305L72.034 72.2366L72.7488 73.1556L63.443 80.2286Z" fill="#6E5CFF"></path>
        <path d="M72.2105 91.6216L71.2001 91.0444C71.2354 90.9778 74.9242 84.1934 74.933 68.2316C74.933 64.7374 74.8227 60.768 74.7256 57.2693C74.6418 54.3611 74.5756 51.848 74.58 50.1164C74.5856 49.32 74.8305 48.544 75.2826 47.8902C75.7346 47.2365 76.3726 46.7356 77.1127 46.4534L77.1877 46.4312L82.7915 45.1703L83.0474 46.3114L77.4834 47.5634C76.9725 47.7662 76.5336 48.1181 76.223 48.5738C75.9124 49.0295 75.7444 49.5683 75.7405 50.1209C75.7405 51.8347 75.8066 54.3389 75.8861 57.2249C75.9831 60.7325 76.0979 64.7063 76.0934 68.2228C76.0846 84.562 72.365 91.3418 72.2105 91.6216Z" fill="#6E5CFF"></path>
        <path d="M75.9964 95.1736L75.4802 94.1257C75.5111 94.1257 79.9676 91.4173 81.3134 72.6539C81.8914 64.6264 81.7547 47.8654 81.7547 47.6967H82.9151C82.9151 47.8654 83.0652 64.6708 82.4739 72.7471C81.0619 92.4297 76.2038 95.0715 75.9964 95.1736Z" fill="#6E5CFF"></path>
        <path d="M72.1354 50.3473C72.1354 50.2985 71.1161 45.3745 77.0508 43.3854C82.584 41.5295 85.5138 41.3963 87.6406 41.5073L87.5789 42.675C85.5492 42.5684 82.7561 42.7016 77.4303 44.4909C72.5104 46.1426 73.2473 49.9344 73.2826 50.0942L72.1354 50.3473Z" fill="#6E5CFF"></path>
        <path d="M120.032 55.5377L118.907 55.2491C118.96 55.0449 120.125 50.1476 116.052 47.3726C111.755 44.4466 102.158 43.5497 102.061 43.5408L102.166 42.3776C102.572 42.4131 112.161 43.31 116.727 46.4046C121.462 49.6414 120.05 55.4756 120.032 55.5377Z" fill="#6E5CFF"></path>
        <path d="M76.6847 44.1269C76.4103 43.0696 76.5576 41.9462 77.0951 40.9967C78.0746 39.1585 80.2411 37.7733 83.5328 36.8853L83.8328 38.013C80.903 38.8078 78.9262 40.0288 78.0967 41.565C77.7112 42.2362 77.593 43.0295 77.7658 43.785L76.6847 44.1269Z" fill="#6E5CFF"></path>
        <path d="M116.463 47.4435C116.132 43.5629 114.129 40.9122 110.515 39.5669C108.766 38.9368 106.918 38.6358 105.061 38.6789L104.99 37.5245C107.006 37.4647 109.014 37.7854 110.912 38.4702C113.714 39.5136 117.151 41.8979 117.614 47.3502L116.463 47.4435Z" fill="#6E5CFF"></path>
        <path d="M126.523 93.6151L111.137 81.2497L118.254 71.0998L132.127 78.4036L131.588 79.4426L118.616 72.6139L112.716 81.0232L126.766 92.3097L135.507 89.5436L138.379 82.7149L132.497 74.0125L122.689 60.1419L123.633 59.467L133.45 73.342L139.698 82.5861L136.367 90.4982L126.523 93.6151Z" fill="#6E5CFF"></path>
    </g>
    <defs>
        <clipPath id="clip0">
            <rect fill="white" height="80" width="160"></rect>
        </clipPath>
    </defs>
</svg>
